<svg xmlns="http://www.w3.org/2000/svg" xmlns:xlink="http://www.w3.org/1999/xlink" width="1920" height="1080" viewBox="0 0 1920 1080">
  <defs>
    <linearGradient id="linear-gradient" x1="0.5" y1="1" x2="0.5" gradientUnits="objectBoundingBox">
      <stop offset="0" stop-color="#05a3a4"/>
      <stop offset="1" stop-color="#006373"/>
    </linearGradient>
    <linearGradient id="linear-gradient-2" x1="0.935" y1="0.296" x2="0.048" y2="0.787" gradientUnits="objectBoundingBox">
      <stop offset="0.316" stop-color="#f37335"/>
      <stop offset="0.36" stop-color="#f57c2f"/>
      <stop offset="0.479" stop-color="#fa8e24"/>
      <stop offset="0.601" stop-color="#fd9a1d"/>
      <stop offset="0.731" stop-color="#ff9e1b"/>
    </linearGradient>
    <linearGradient id="linear-gradient-3" x1="0.51" y1="1.03" x2="0.21" y2="0.123" xlink:href="#linear-gradient-2"/>
    <linearGradient id="linear-gradient-4" x1="0.934" y1="0.296" x2="0.048" y2="0.787" gradientUnits="objectBoundingBox">
      <stop offset="0.32" stop-color="#f37335"/>
      <stop offset="0.36" stop-color="#f67c30"/>
      <stop offset="0.48" stop-color="#fb8f24"/>
      <stop offset="0.6" stop-color="#fe9a1d"/>
      <stop offset="0.73" stop-color="#ff9e1b"/>
    </linearGradient>
    <linearGradient id="linear-gradient-5" x1="0.51" y1="1.03" x2="0.21" y2="0.123" xlink:href="#linear-gradient-4"/>
    <clipPath id="clip-Admin_Create_Exam_Time_Expanded">
      <rect width="1920" height="1080"/>
    </clipPath>
  </defs>
  <g id="Admin_Create_Exam_Time_Expanded" data-name="Admin Create Exam Time Expanded" clip-path="url(#clip-Admin_Create_Exam_Time_Expanded)">
    <rect width="1920" height="1080" fill="#fff"/>
    <path id="Path_959" data-name="Path 959" d="M10,0H204a10,10,0,0,1,10,10V271a10,10,0,0,1-10,10H10A10,10,0,0,1,0,271V10A10,10,0,0,1,10,0Z" transform="translate(585 468)" fill="#3d4251"/>
    <rect id="Rectangle_747" data-name="Rectangle 747" width="42" height="33" rx="10" transform="translate(665 600)" fill="#f57f25"/>
    <rect id="Rectangle_746" data-name="Rectangle 746" width="42" height="33" rx="10" transform="translate(601 712)" fill="#f57f25"/>
    <g id="Group_1205" data-name="Group 1205">
      <text id="_04" data-name="04" transform="translate(609 513)" fill="#fff" font-size="20" font-family="Roboto-Regular, Roboto"><tspan x="0" y="0">04</tspan></text>
      <text id="_32" data-name="32" transform="translate(675 513)" fill="#fff" font-size="20" font-family="Roboto-Regular, Roboto"><tspan x="0" y="0">32</tspan></text>
    </g>
    <g id="Group_1206" data-name="Group 1206" transform="translate(0 37)">
      <text id="_05" data-name="05" transform="translate(609 513)" fill="#fff" font-size="20" font-family="Roboto-Regular, Roboto"><tspan x="0" y="0">05</tspan></text>
      <text id="_33" data-name="33" transform="translate(675 513)" fill="#fff" font-size="20" font-family="Roboto-Regular, Roboto"><tspan x="0" y="0">33</tspan></text>
    </g>
    <g id="Group_1207" data-name="Group 1207" transform="translate(0 74)">
      <text id="_06" data-name="06" transform="translate(609 513)" fill="#fff" font-size="20" font-family="Roboto-Regular, Roboto"><tspan x="0" y="0">06</tspan></text>
      <text id="_34" data-name="34" transform="translate(675 513)" fill="#fff" font-size="20" font-family="Roboto-Regular, Roboto"><tspan x="0" y="0">34</tspan></text>
    </g>
    <g id="Group_1208" data-name="Group 1208" transform="translate(0 111)">
      <text id="_07" data-name="07" transform="translate(609 513)" fill="#fff" font-size="20" font-family="Roboto-Regular, Roboto"><tspan x="0" y="0">07</tspan></text>
      <text id="_35" data-name="35" transform="translate(675 513)" fill="#fff" font-size="20" font-family="Roboto-Regular, Roboto"><tspan x="0" y="0">35</tspan></text>
    </g>
    <g id="Group_1209" data-name="Group 1209" transform="translate(0 148)">
      <text id="_08" data-name="08" transform="translate(609 513)" fill="#fff" font-size="20" font-family="Roboto-Regular, Roboto"><tspan x="0" y="0">08</tspan></text>
      <text id="_36" data-name="36" transform="translate(675 513)" fill="#fff" font-size="20" font-family="Roboto-Regular, Roboto"><tspan x="0" y="0">36</tspan></text>
    </g>
    <g id="Group_1210" data-name="Group 1210" transform="translate(0 185)">
      <text id="_09" data-name="09" transform="translate(609 513)" fill="#fff" font-size="20" font-family="Roboto-Regular, Roboto"><tspan x="0" y="0">09</tspan></text>
      <text id="_37" data-name="37" transform="translate(675 513)" fill="#fff" font-size="20" font-family="Roboto-Regular, Roboto"><tspan x="0" y="0">37</tspan></text>
    </g>
    <g id="Group_1211" data-name="Group 1211" transform="translate(0 222)">
      <text id="_10" data-name="10" transform="translate(611 514)" fill="#fff" font-size="20" font-family="Roboto-Regular, Roboto"><tspan x="0" y="0">10</tspan></text>
      <text id="_38" data-name="38" transform="translate(675 513)" fill="#fff" font-size="20" font-family="Roboto-Regular, Roboto"><tspan x="0" y="0">38</tspan></text>
    </g>
    <text id="PM" transform="translate(739 551)" fill="#fff" font-size="20" font-family="Roboto-Regular, Roboto"><tspan x="0" y="0">PM</tspan></text>
    <rect id="Rectangle_745" data-name="Rectangle 745" width="42" height="33" rx="10" transform="translate(733 489)" fill="#f57f25"/>
    <text id="AM" transform="translate(739 513)" fill="#fff" font-size="20" font-family="Roboto-Regular, Roboto"><tspan x="0" y="0">AM</tspan></text>
    <g id="Group_1800" data-name="Group 1800">
      <g id="Base">
        <rect id="Base-2" data-name="Base" width="1920" height="70" opacity="0.9" fill="url(#linear-gradient)"/>
      </g>
      <text id="HOW_IT_WORKS" data-name="HOW IT WORKS" transform="translate(548 40)" fill="#fff" font-size="16" font-family="FiraSans-Medium, Fira Sans" font-weight="500"><tspan x="0" y="0">HOW IT WORKS</tspan></text>
      <text id="ABOUT" transform="translate(462 40)" fill="#fff" font-size="16" font-family="FiraSans-Medium, Fira Sans" font-weight="500"><tspan x="0" y="0">ABOUT</tspan></text>
      <text id="CONTACT" transform="translate(683 40)" fill="#fff" font-size="16" font-family="FiraSans-Medium, Fira Sans" font-weight="500"><tspan x="0" y="0">CONTACT</tspan></text>
      <g id="Group_1227" data-name="Group 1227" transform="translate(-0.252)">
        <g id="Group_1216" data-name="Group 1216" transform="translate(332.896 7)">
          <path id="Path_428" data-name="Path 428" d="M901.106,103.981c-8.669,2.429-29.849,33.876-29.849,33.876l-6.042-9.327,4.051.39,1.751,2.907s14.928-24.147,30.088-27.846Z" transform="translate(-864.02 -103.981)" fill="url(#linear-gradient-2)"/>
          <path id="Path_429" data-name="Path 429" d="M865.563,366.654,876.736,390h-5.158l-8.986-16.143L860.277,390h-4.926l4.471-23.3,2.785,4.24Z" transform="translate(-855.352 -334.8)" fill="url(#linear-gradient-3)"/>
        </g>
        <g id="Group_1217" data-name="Group 1217" transform="translate(351.635 28.485)">
          <path id="Path_430" data-name="Path 430" d="M1020.9,325.544l-1.322,1.983a6.573,6.573,0,0,0-3.516-1.137,2.721,2.721,0,0,0-1.56.383,1.182,1.182,0,0,0-.555,1.018,1.285,1.285,0,0,0,.238.793,2.165,2.165,0,0,0,.859.595,14.327,14.327,0,0,0,1.837.621,8.069,8.069,0,0,1,3.371,1.613,3.61,3.61,0,0,1,1.1,2.8,3.758,3.758,0,0,1-1.692,3.265,7.189,7.189,0,0,1-4.2,1.177,8.887,8.887,0,0,1-3.133-.529,7.592,7.592,0,0,1-2.446-1.454l1.692-1.9a6.241,6.241,0,0,0,3.807,1.375,3.221,3.221,0,0,0,1.811-.449,1.415,1.415,0,0,0,.674-1.243,1.65,1.65,0,0,0-.251-.965,2.07,2.07,0,0,0-.9-.635,18.894,18.894,0,0,0-2.022-.674,6.751,6.751,0,0,1-3.146-1.626,3.606,3.606,0,0,1-1-2.6,3.46,3.46,0,0,1,.674-2.089,4.477,4.477,0,0,1,1.9-1.454,7.073,7.073,0,0,1,2.816-.529A7.867,7.867,0,0,1,1020.9,325.544Z" transform="translate(-1009.871 -318.696)" fill="#fff"/>
          <path id="Path_431" data-name="Path 431" d="M1137.526,288.245a4.4,4.4,0,0,1,1.057,3.12v10.126H1135.2v-9.6a2.685,2.685,0,0,0-.436-1.745,1.607,1.607,0,0,0-1.282-.5,2.525,2.525,0,0,0-1.56.542,6.181,6.181,0,0,0-1.375,1.547v9.756h-3.384V281.927l3.384-.344v7.588a5.107,5.107,0,0,1,4.072-2.062A3.779,3.779,0,0,1,1137.526,288.245Z" transform="translate(-1112.938 -281.53)" fill="#fff"/>
          <path id="Path_432" data-name="Path 432" d="M1256.369,335.762a1.6,1.6,0,0,0,.806.595l-.714,2.247a4.325,4.325,0,0,1-1.943-.582,2.971,2.971,0,0,1-1.15-1.454,4.482,4.482,0,0,1-1.785,1.573,5.446,5.446,0,0,1-2.393.516,4.522,4.522,0,0,1-3.3-1.19,4.169,4.169,0,0,1-1.216-3.12,4.036,4.036,0,0,1,1.652-3.477,7.926,7.926,0,0,1,4.719-1.2h1.745v-.793a2.413,2.413,0,0,0-.621-1.89,3.006,3.006,0,0,0-2-.542,11.8,11.8,0,0,0-3.7.74l-.793-2.3a14.129,14.129,0,0,1,5.076-1q5.367,0,5.367,4.812v5.869A2.24,2.24,0,0,0,1256.369,335.762Zm-3.583-1.282v-2.829h-1.4q-3.279,0-3.278,2.432a2.242,2.242,0,0,0,.5,1.56,1.9,1.9,0,0,0,1.481.555A2.994,2.994,0,0,0,1252.787,334.48Z" transform="translate(-1216.196 -318.696)" fill="#fff"/>
          <path id="Path_433" data-name="Path 433" d="M1376.245,281.147v19.961h-3.384V281.517Zm8.381,5.975-4.653,6.16,5.1,7.826h-3.887l-4.812-7.641,4.68-6.345Z" transform="translate(-1328.841 -281.147)" fill="#fff"/>
        </g>
        <path id="Path_434" data-name="Path 434" d="M473.631,325.684a9.822,9.822,0,0,1,1.269,5.42,10.635,10.635,0,0,1-.648,3.847,5.849,5.849,0,0,1-1.9,2.631,4.784,4.784,0,0,1-2.974.952A4.362,4.362,0,0,1,465.858,337v6.53l-3.384.37v-19.75h2.961l.185,1.719a5.482,5.482,0,0,1,1.877-1.586,4.9,4.9,0,0,1,2.221-.529A4.356,4.356,0,0,1,473.631,325.684Zm-2.274,5.446a7.734,7.734,0,0,0-.661-3.7,2.152,2.152,0,0,0-1.983-1.137,2.724,2.724,0,0,0-1.586.516,4.5,4.5,0,0,0-1.269,1.388v6.293a2.97,2.97,0,0,0,2.565,1.454Q471.358,335.942,471.357,331.13Z" transform="translate(-177.222 -290.102)" fill="#fff"/>
        <path id="Path_435" data-name="Path 435" d="M592.773,335.818a1.606,1.606,0,0,0,.806.595l-.714,2.247a4.327,4.327,0,0,1-1.943-.582,2.972,2.972,0,0,1-1.15-1.454,4.482,4.482,0,0,1-1.785,1.573,5.446,5.446,0,0,1-2.393.515,4.522,4.522,0,0,1-3.3-1.19,4.168,4.168,0,0,1-1.216-3.12,4.036,4.036,0,0,1,1.652-3.477,7.927,7.927,0,0,1,4.719-1.2h1.745v-.793a2.413,2.413,0,0,0-.621-1.89,3,3,0,0,0-2-.542,11.8,11.8,0,0,0-3.7.74l-.793-2.3a14.128,14.128,0,0,1,5.076-1q5.367,0,5.367,4.812v5.869A2.242,2.242,0,0,0,592.773,335.818Zm-3.582-1.282v-2.829h-1.4q-3.279,0-3.278,2.432a2.242,2.242,0,0,0,.5,1.56,1.9,1.9,0,0,0,1.481.555A2.994,2.994,0,0,0,589.191,334.536Z" transform="translate(-281.439 -290.26)" fill="#fff"/>
        <path id="Path_436" data-name="Path 436" d="M717.566,327.607l-.582,3.278a5.112,5.112,0,0,0-1.242-.159,2.377,2.377,0,0,0-1.957.886,6.809,6.809,0,0,0-1.137,2.71v7.456h-3.384V327.792H712.2l.317,2.75a5.029,5.029,0,0,1,1.454-2.313,3.3,3.3,0,0,1,2.194-.806A5.006,5.006,0,0,1,717.566,327.607Z" transform="translate(-394.084 -293.325)" fill="#fff"/>
        <g id="Group_1218" data-name="Group 1218" transform="translate(324.08 25.073)">
          <path id="Path_437" data-name="Path 437" d="M795.45,272.641a1.994,1.994,0,0,1,.595,1.467,1.95,1.95,0,0,1-.595,1.454,2.118,2.118,0,0,1-1.547.582,2.083,2.083,0,0,1-1.52-.582,1.95,1.95,0,0,1-.595-1.454,1.994,1.994,0,0,1,.595-1.467,2.058,2.058,0,0,1,1.52-.595A2.093,2.093,0,0,1,795.45,272.641Zm.172,6.491v13.986h-3.384V279.132Z" transform="translate(-790.68 -269.738)" fill="#fff"/>
          <path id="Path_438" data-name="Path 438" d="M794.249,268.089V269.1a4.359,4.359,0,0,1,3.671,0v-1.029a4.591,4.591,0,0,0-1.85-.491A4.286,4.286,0,0,0,794.249,268.089Z" transform="translate(-792.842 -265.817)" fill="#e87b1a"/>
          <path id="Path_439" data-name="Path 439" d="M788.224,254.35l-2.409-1.336-3.165,1.812,1.405.639.006-.176a3.975,3.975,0,0,1,1.817-.459,4.26,4.26,0,0,1,1.846.447l.006.323.869-.47v1.435h-.22v.51l.292-.2.324.2v-.51h-.238v-1.52h0l.365-.2-.365-.2Z" transform="translate(-782.65 -253.014)" fill="#e87b1a"/>
        </g>
      </g>
    </g>
    <g id="Footer" transform="translate(0 1009)">
      <rect id="Base-3" data-name="Base" width="1920" height="71" fill="#3d4251"/>
      <text id="Terms_of_use_Privacy_Policy_2020_All_rights_Reserved_Powered_by_parikshak.com" data-name="Terms of use | Privacy Policy
©  2020 All rights Reserved | Powered by parikshak.com" transform="translate(960 28)" fill="#fff" font-size="13" font-family="ArialMT, Arial"><tspan x="-82.961" y="0">Terms of use | Privacy Policy</tspan><tspan x="-162.192" y="24" xml:space="preserve">©  2020 All rights Reserved | Powered by parikshak.com</tspan></text>
      <g id="Layer_1" data-name="Layer 1" transform="translate(277 9)">
        <path id="Path_230" data-name="Path 230" d="M537.142,32.31c-7.521,2.1-25.9,29.389-25.9,29.389L506,53.608l3.514.342,1.519,2.525S523.984,35.52,537.142,32.31Z" transform="translate(-452.765 -28.911)" fill="url(#linear-gradient-4)"/>
        <path id="Path_231" data-name="Path 231" d="M504.989,294.99l9.694,20.25h-4.476l-7.8-14.005L500.4,315.24H496.13l3.879-20.216,2.416,3.678Z" transform="translate(-443.933 -263.955)" fill="url(#linear-gradient-5)"/>
        <path id="Path_232" data-name="Path 232" d="M660.17,253.643l-1.147,1.72a5.712,5.712,0,0,0-3.051-.987,2.361,2.361,0,0,0-1.353.332,1.027,1.027,0,0,0-.482.884,1.123,1.123,0,0,0,.211.688,1.878,1.878,0,0,0,.746.515,12.4,12.4,0,0,0,1.594.54,6.974,6.974,0,0,1,2.925,1.4,3.119,3.119,0,0,1,.947,2.431A3.257,3.257,0,0,1,659.086,264a6.249,6.249,0,0,1-3.646,1.021,7.7,7.7,0,0,1-2.719-.459A6.6,6.6,0,0,1,650.6,263.3l1.473-1.652a5.4,5.4,0,0,0,3.3,1.193,2.8,2.8,0,0,0,1.571-.39,1.226,1.226,0,0,0,.585-1.077,1.432,1.432,0,0,0-.218-.842,1.761,1.761,0,0,0-.781-.55,16.291,16.291,0,0,0-1.754-.585,5.9,5.9,0,0,1-2.735-1.411,3.1,3.1,0,0,1-.871-2.259,3,3,0,0,1,.585-1.813,3.893,3.893,0,0,1,1.651-1.262,6.146,6.146,0,0,1,2.443-.459A6.82,6.82,0,0,1,660.17,253.643Z" transform="translate(-582.152 -225.658)" fill="#fff"/>
        <path id="Path_233" data-name="Path 233" d="M776.931,215.7a3.819,3.819,0,0,1,.917,2.706v8.785h-2.935v-8.326a2.331,2.331,0,0,0-.379-1.514,1.389,1.389,0,0,0-1.112-.436,2.19,2.19,0,0,0-1.354.47,5.365,5.365,0,0,0-1.192,1.341v8.464H767.94V210.218l2.936-.3V216.5a4.43,4.43,0,0,1,3.532-1.789A3.273,3.273,0,0,1,776.931,215.7Z" transform="translate(-687.147 -187.835)" fill="#fff"/>
        <path id="Path_234" data-name="Path 234" d="M895.644,262.52a1.391,1.391,0,0,0,.7.516l-.62,1.951a3.744,3.744,0,0,1-1.683-.505,2.6,2.6,0,0,1-1-1.262,3.882,3.882,0,0,1-1.548,1.368,4.734,4.734,0,0,1-2.076.447A3.923,3.923,0,0,1,886.552,264a3.606,3.606,0,0,1-1.052-2.707,3.5,3.5,0,0,1,1.433-3.015,6.858,6.858,0,0,1,4.091-1.042h1.514v-.688a2.089,2.089,0,0,0-.54-1.64,2.615,2.615,0,0,0-1.732-.47,10.245,10.245,0,0,0-3.211.642l-.688-2a12.223,12.223,0,0,1,4.4-.872q4.655,0,4.657,4.175v5.092A1.94,1.94,0,0,0,895.644,262.52Zm-3.108-1.113v-2.453H891.32q-2.841,0-2.841,2.109a1.948,1.948,0,0,0,.435,1.354,1.644,1.644,0,0,0,1.285.482A2.594,2.594,0,0,0,892.536,261.407Z" transform="translate(-792.338 -225.675)" fill="#fff"/>
        <path id="Path_235" data-name="Path 235" d="M1016.575,209.48V226.8h-2.935v-17Zm7.271,5.184-4.037,5.345,4.427,6.789h-3.367l-4.175-6.628,4.06-5.5Z" transform="translate(-906.997 -187.441)" fill="#fff"/>
        <path id="Path_236" data-name="Path 236" d="M112.92,253.764a8.518,8.518,0,0,1,1.1,4.7,9.234,9.234,0,0,1-.562,3.338,5.062,5.062,0,0,1-1.652,2.282,4.134,4.134,0,0,1-2.581.83,3.788,3.788,0,0,1-3.051-1.331v5.665l-2.936.316V252.434h2.569l.161,1.491a4.758,4.758,0,0,1,1.628-1.376,4.253,4.253,0,0,1,1.93-.459A3.776,3.776,0,0,1,112.92,253.764Zm-1.972,4.725a6.7,6.7,0,0,0-.574-3.211,1.869,1.869,0,0,0-1.72-.988,2.359,2.359,0,0,0-1.376.447,3.893,3.893,0,0,0-1.1,1.2V261.4a2.575,2.575,0,0,0,2.225,1.262Q110.949,262.663,110.949,258.489Z" transform="translate(-92.378 -225.568)" fill="#fff"/>
        <path id="Path_237" data-name="Path 237" d="M232.053,262.544a1.393,1.393,0,0,0,.7.517l-.619,1.949a3.727,3.727,0,0,1-1.683-.5,2.6,2.6,0,0,1-1-1.262,3.892,3.892,0,0,1-1.549,1.368,4.725,4.725,0,0,1-2.076.447,3.924,3.924,0,0,1-2.867-1.032,3.607,3.607,0,0,1-1.052-2.707,3.5,3.5,0,0,1,1.434-3.016,6.874,6.874,0,0,1,4.087-1.046h1.514v-.688a2.094,2.094,0,0,0-.539-1.64,2.6,2.6,0,0,0-1.732-.47,10.222,10.222,0,0,0-3.211.643l-.688-2a12.266,12.266,0,0,1,4.4-.871q4.655,0,4.655,4.175V261.5A1.951,1.951,0,0,0,232.053,262.544Zm-3.108-1.112v-2.455H227.73q-2.841,0-2.841,2.11a1.941,1.941,0,0,0,.437,1.353,1.649,1.649,0,0,0,1.284.482A2.594,2.594,0,0,0,228.945,261.431Z" transform="translate(-198.563 -225.693)" fill="#fff"/>
        <path id="Path_238" data-name="Path 238" d="M357.207,255.918l-.5,2.841a4.391,4.391,0,0,0-1.077-.135,2.062,2.062,0,0,0-1.7.768,5.868,5.868,0,0,0-.981,2.352v6.468H350V256.079h2.546l.276,2.385a4.365,4.365,0,0,1,1.263-2.007,2.857,2.857,0,0,1,1.9-.7A4.362,4.362,0,0,1,357.207,255.918Z" transform="translate(-313.177 -228.85)" fill="#fff"/>
        <path id="Path_239" data-name="Path 239" d="M435.741,200.886a1.733,1.733,0,0,1,.517,1.273,1.7,1.7,0,0,1-.517,1.262,1.843,1.843,0,0,1-1.341.5,1.811,1.811,0,0,1-1.319-.5,1.694,1.694,0,0,1-.516-1.262,1.732,1.732,0,0,1,.516-1.273,1.788,1.788,0,0,1,1.319-.516A1.815,1.815,0,0,1,435.741,200.886Zm.149,5.632v12.134h-2.936V206.518Z" transform="translate(-387.055 -179.289)" fill="#fff"/>
        <path id="Path_240" data-name="Path 240" d="M435,196.385v.881a3.783,3.783,0,0,1,3.185,0v-.889a3.987,3.987,0,0,0-1.605-.426A3.741,3.741,0,0,0,435,196.385Z" transform="translate(-389.235 -175.334)" fill="#e87b1a"/>
        <path id="Path_241" data-name="Path 241" d="M428.265,182.517l-2.089-1.157-2.746,1.572,1.217.553.005-.154a3.447,3.447,0,0,1,1.578-.4,3.7,3.7,0,0,1,1.6.387l.005.28.753-.407v1.245h-.19v.443l.254-.176.281.176v-.443h-.21V183.12h0l.316-.17-.316-.176Z" transform="translate(-378.882 -162.279)" fill="#e87b1a"/>
        <rect id="Rectangle_732" data-name="Rectangle 732" width="128.868" height="53.025" fill="none"/>
      </g>
    </g>
    <text id="Create_Exam" data-name="Create Exam" transform="translate(585 158)" fill="#3d4251" font-size="41" font-family="FiraSans-Medium, Fira Sans" font-weight="500"><tspan x="0" y="0">Create Exam</tspan></text>
    <g id="Group_1202" data-name="Group 1202" transform="translate(0 -9)">
      <g id="Rectangle_741" data-name="Rectangle 741" transform="translate(1074 219)" fill="#fff" stroke="#4cb2be" stroke-width="2">
        <rect width="360" height="50" rx="10" stroke="none"/>
        <rect x="1" y="1" width="358" height="48" rx="9" fill="none"/>
      </g>
      <text id="Course_code" data-name="Course code" transform="translate(1097 251)" fill="#3d4251" font-size="20" font-family="Roboto-Regular, Roboto" opacity="0.55"><tspan x="0" y="0">Course code</tspan></text>
    </g>
    <g id="Group_1198" data-name="Group 1198" transform="translate(0 -6)">
      <g id="Rectangle_740" data-name="Rectangle 740" transform="translate(585 306)" fill="#fff" stroke="#4cb2be" stroke-width="2">
        <rect width="360" height="50" rx="10" stroke="none"/>
        <rect x="1" y="1" width="358" height="48" rx="9" fill="none"/>
      </g>
      <text id="Duration_in_minutes" data-name="Duration in minutes" transform="translate(608 338)" fill="#3d4251" font-size="20" font-family="Roboto-Regular, Roboto" opacity="0.55"><tspan x="0" y="0">Duration in minutes</tspan></text>
    </g>
    <g id="Rectangle_743" data-name="Rectangle 743" transform="translate(1074 399)" fill="#fff" stroke="#4cb2be" stroke-width="2">
      <rect width="360" height="50" rx="10" stroke="none"/>
      <rect x="1" y="1" width="358" height="48" rx="9" fill="none"/>
    </g>
    <text id="_19_10_2020" data-name="19/10/2020" transform="translate(1132 431)" fill="#3d4251" font-size="20" font-family="Roboto-Regular, Roboto"><tspan x="0" y="0">19/10/2020</tspan></text>
    <g id="expand_more-24px" transform="translate(1392 412)">
      <path id="Path_404" data-name="Path 404" d="M0,0H24V24H0Z" fill="none"/>
      <path id="Path_405" data-name="Path 405" d="M16.59,8.59,12,13.17,7.41,8.59,6,10l6,6,6-6Z" fill="#3d4251"/>
    </g>
    <g id="ic-actions-calendar" transform="translate(1097.19 412.336)">
      <rect id="Rectangle_29" data-name="Rectangle 29" width="24" height="24" transform="translate(-0.19 -0.336)" fill="none"/>
      <g id="Layer" transform="translate(1.005 2.01)">
        <g id="Vrstva_98" data-name="Vrstva 98">
          <path id="Path_72" data-name="Path 72" d="M20.095,4.01h-1V3a1,1,0,0,0-2.01,0v1H7.03V3A1,1,0,0,0,5.02,3v1h-1A3.015,3.015,0,0,0,1,7.025v12.06A3.015,3.015,0,0,0,4.015,22.1h16.08a3.015,3.015,0,0,0,3.015-3.015V7.025A3.015,3.015,0,0,0,20.095,4.01ZM3.01,7.025a1,1,0,0,1,1-1h16.08a1,1,0,0,1,1,1v1H3.01ZM21.1,19.085a1,1,0,0,1-1,1H4.015a1,1,0,0,1-1-1V10.04H21.1Z" transform="translate(-1 -2)" fill="#3d4251" fill-rule="evenodd"/>
          <rect id="Rectangle_4" data-name="Rectangle 4" width="2" height="3" rx="0.8" transform="translate(4.804 10.655)" fill="#3d4251"/>
          <rect id="Rectangle_5" data-name="Rectangle 5" width="3" height="3" rx="0.8" transform="translate(8.804 10.655)" fill="#3d4251"/>
        </g>
      </g>
    </g>
    <g id="Path_957" data-name="Path 957" transform="translate(585 400)" fill="#fff">
      <path d="M 350 49 L 10 49 C 5.037363529205322 49 1 44.9626350402832 1 40 L 1 10 C 1 5.037363529205322 5.037363529205322 1 10 1 L 350 1 C 354.962646484375 1 359 5.037363529205322 359 10 L 359 40 C 359 44.9626350402832 354.962646484375 49 350 49 Z" stroke="none"/>
      <path d="M 10 2 C 5.588775634765625 2 2 5.588771820068359 2 10 L 2 40 C 2 44.41122817993164 5.588775634765625 48 10 48 L 350 48 C 354.4112243652344 48 358 44.41122817993164 358 40 L 358 10 C 358 5.588771820068359 354.4112243652344 2 350 2 L 10 2 M 10 0 L 350 0 C 355.5228576660156 0 360 4.477134704589844 360 10 L 360 40 C 360 45.52286529541016 355.5228576660156 50 350 50 L 10 50 C 4.477142333984375 50 0 45.52286529541016 0 40 L 0 10 C 0 4.477134704589844 4.477142333984375 0 10 0 Z" stroke="none" fill="#4cb2be"/>
    </g>
    <text id="_10:35_AM" data-name="10:35 AM" transform="translate(641 432)" fill="#3d4251" font-size="20" font-family="Roboto-Regular, Roboto"><tspan x="0" y="0">10:35 AM</tspan></text>
    <g id="expand_more-24px-2" data-name="expand_more-24px" transform="translate(901 413)">
      <path id="Path_404-2" data-name="Path 404" d="M0,24H24V0H0Z" fill="none"/>
      <path id="Path_405-2" data-name="Path 405" d="M16.59,16,12,11.42,7.41,16,6,14.59l6-6,6,6Z" transform="translate(0 -0.59)" fill="#3d4251"/>
    </g>
    <g id="schedule-24px" transform="translate(606 413)">
      <path id="Path_413" data-name="Path 413" d="M0,0H24V24H0Z" fill="none"/>
      <path id="Path_414" data-name="Path 414" d="M11.99,2A10,10,0,1,0,22,12,10,10,0,0,0,11.99,2ZM12,20a8,8,0,1,1,8-8A8,8,0,0,1,12,20Z" fill="#3d4251"/>
      <path id="Path_415" data-name="Path 415" d="M12.5,7H11v6l5.25,3.15L17,14.92l-4.5-2.67Z" fill="#3d4251"/>
    </g>
    <g id="Dropdown_2" data-name="Dropdown 2" transform="translate(217 -30)">
      <g id="Rectangle_613" data-name="Rectangle 613" transform="translate(857 330)" fill="#fff" stroke="#4cb2be" stroke-width="2">
        <rect width="360" height="50" rx="10" stroke="none"/>
        <rect x="1" y="1" width="358" height="48" rx="9" fill="none"/>
      </g>
      <text id="Type" transform="translate(877 361)" fill="#3d4251" font-size="20" font-family="Roboto-Regular, Roboto"><tspan x="0" y="0">Type</tspan></text>
    </g>
    <g id="expand_more-24px-3" data-name="expand_more-24px" transform="translate(1393 313)">
      <path id="Path_404-3" data-name="Path 404" d="M0,0H24V24H0Z" fill="none"/>
      <path id="Path_405-3" data-name="Path 405" d="M16.59,8.59,12,13.17,7.41,8.59,6,10l6,6,6-6Z" fill="#3d4251"/>
    </g>
    <g id="Button" transform="translate(585 921)">
      <rect id="Rectangle_1" data-name="Rectangle 1" width="145" height="37" rx="3" fill="#f57f25"/>
      <text id="DONE" transform="translate(55.157 23)" fill="#fff" font-size="14" font-family="FiraSans-Regular, Fira Sans"><tspan x="0" y="0">DONE</tspan></text>
    </g>
    <g id="Group_1195" data-name="Group 1195" transform="translate(562.947 785.785)">
      <g id="Group_1194" data-name="Group 1194" transform="translate(22.053 16.499)">
        <g id="Group_1193" data-name="Group 1193">
          <circle id="Ellipse_21" data-name="Ellipse 21" cx="7.852" cy="7.852" r="7.852" transform="translate(16.901)" fill="#3d4251"/>
          <path id="Path_408" data-name="Path 408" d="M71.577,33.155H61.454L58.411,22.038l-8.569-1.172-2.9,3.473-3-3.473-8.729,1.115L31.976,33.155H22.053v6.427h4.011V61.532h41.5V39.583h4.011Zm-14.837,0H55.1l-.185-6.518ZM38.168,26.937v6.218H36.334Z" transform="translate(-22.053 -3.981)" fill="#3d4251"/>
        </g>
      </g>
      <g id="Group_466" data-name="Group 466" transform="translate(61.072 6.215)">
        <path id="Path_392" data-name="Path 392" d="M51.255,6.4a11.5,11.5,0,0,1,4.124,0A10.4,10.4,0,0,1,62.943,13,10.249,10.249,0,0,1,51.237,26.567a10.8,10.8,0,0,1-7.138-5.55,10.531,10.531,0,0,1-.41-7.978A10.342,10.342,0,0,1,51.255,6.4ZM48.273,17.545a38.262,38.262,0,0,0,3.887.065,32.307,32.307,0,0,0,.087,3.742,1.11,1.11,0,0,0,2.062.2,20.48,20.48,0,0,0,.158-3.944c1.3-.019,2.6.08,3.889-.063a1.439,1.439,0,0,0,.124-2.034,1.119,1.119,0,0,0-.115-.115c-1.294-.137-2.6-.041-3.9-.059a21.542,21.542,0,0,0-.148-3.926,1.1,1.1,0,0,0-2.062.2c-.121,1.237-.078,2.485-.106,3.724-1.239,0-2.476,0-3.714.017a1.284,1.284,0,0,0-.566,1.726A1.3,1.3,0,0,0,48.273,17.545Z" transform="translate(-43.094 -6.216)" fill="#3d4251"/>
      </g>
    </g>
    <g id="Group_1200" data-name="Group 1200" transform="translate(34 397.582)">
      <g id="Group_1197" data-name="Group 1197" transform="translate(656 404)">
        <g id="Layer_2" data-name="Layer 2" transform="translate(0 0)">
          <g id="Group_1196" data-name="Group 1196">
            <path id="Path_409" data-name="Path 409" d="M201.712,118.931c.554.312,4.284,2.114,6.087,2.982.007.7.023,1.909.046,1.93.2,1.732.54,3.656.638,4.2-.164.091-1.006.642-1.006,2.354,0,.01,0,.019,0,.028,0,.045,0,.09,0,.137.362,4.761,2.256,2.709,2.646,4.795.649,3.467,3.72,5.976,5.631,6.842a7.957,7.957,0,0,0,6.872,0c1.911-.866,4.981-3.375,5.631-6.842.39-2.086,2.284-.034,2.646-4.795,0-.047,0-.092,0-.137l0-.028c0-1.713-.842-2.264-1.006-2.354.1-.543.44-2.468.638-4.2.024-.021.039-1.23.046-1.93.99-.477,2.561-1.235,3.868-1.874v4.6a1.184,1.184,0,0,0-.12,2.005s-.525,2.952-.7,3.82,2.995.694,2.853,0-.695-3.82-.695-3.82a1.184,1.184,0,0,0-.119-2.005v-5.2c.487-.242.85-.425.995-.507.392-.221.6-.5.559-.8.054-.306-.168-.634-.761-.925-4.235-2.073-15.033-7.357-16.1-7.866a2.182,2.182,0,0,0-2.351,0c-1.068.509-11.865,5.793-16.1,7.866-.594.291-.815.619-.761.925C201.109,118.428,201.32,118.711,201.712,118.931Z" transform="translate(-195.12 -109)" fill="#3d4251"/>
            <path id="Path_410" data-name="Path 410" d="M190.9,406.868a53.087,53.087,0,0,1-6.055-3.109,1.041,1.041,0,0,0-1.466.457c-1.643,2.75-4.689,10.748-6.814,10.9l-.039-.005-.039.005c-2.125-.148-5.171-8.146-6.814-10.9a1.041,1.041,0,0,0-1.466-.457,53.079,53.079,0,0,1-6.055,3.109c-6.688,2.412-9.7,4.871-9.7,6.548v11.151h48.141V413.416C200.592,411.739,197.585,409.279,190.9,406.868Z" transform="translate(-152.452 -367.157)" fill="#3d4251"/>
          </g>
        </g>
      </g>
      <g id="Group_466-2" data-name="Group 466" transform="translate(694.047 393.419)">
        <path id="Path_392-2" data-name="Path 392" d="M506.932,66.271a11.633,11.633,0,0,1,4.152,0,10.471,10.471,0,0,1,7.615,6.64,10.321,10.321,0,0,1-11.786,13.664,10.872,10.872,0,0,1-7.185-5.589,10.6,10.6,0,0,1-.414-8.032A10.415,10.415,0,0,1,506.932,66.271Zm-3,11.219a38.051,38.051,0,0,0,3.912.065,32.765,32.765,0,0,0,.088,3.769,1.118,1.118,0,0,0,2.076.2,20.607,20.607,0,0,0,.16-3.971c1.3-.019,2.619.082,3.915-.062a1.452,1.452,0,0,0,.01-2.165c-1.3-.137-2.619-.04-3.925-.059a21.767,21.767,0,0,0-.15-3.952,1.105,1.105,0,0,0-2.076.2c-.121,1.246-.078,2.5-.105,3.749-1.249,0-2.494,0-3.742.016a1.293,1.293,0,0,0-.163,2.208Z" transform="translate(-498.715 -66.084)" fill="#3d4251"/>
      </g>
    </g>
    <g id="Group_1199" data-name="Group 1199" transform="translate(0 -9)">
      <g id="Rectangle_598" data-name="Rectangle 598" transform="translate(585 219)" fill="#fff" stroke="#f57f25" stroke-width="2">
        <rect width="360" height="50" rx="10" stroke="none"/>
        <rect x="1" y="1" width="358" height="48" rx="9" fill="none"/>
      </g>
      <text id="Title" transform="translate(608 251)" fill="#3d4251" font-size="20" font-family="Roboto-Regular, Roboto" opacity="0.55"><tspan x="0" y="0">Title</tspan></text>
    </g>
    <g id="Group_399" data-name="Group 399">
      <rect id="Rectangle_719" data-name="Rectangle 719" width="265" height="1011" transform="translate(275 69)" fill="#3d4251"/>
      <rect id="Rectangle_720" data-name="Rectangle 720" width="265" height="60" transform="translate(275 303)" fill="#666f88"/>
      <text id="Change_password" data-name="Change password" transform="translate(297 400)" fill="#fff" font-size="20" font-family="Roboto-Regular, Roboto"><tspan x="0" y="0">Change password</tspan></text>
      <text id="Logout" transform="translate(297 460)" fill="#fff" font-size="20" font-family="Roboto-Regular, Roboto"><tspan x="0" y="0">Logout</tspan></text>
      <text id="Exams" transform="translate(297 340)" fill="#fff" font-size="20" font-family="Roboto-Regular, Roboto"><tspan x="0" y="0">Exams</tspan></text>
      <g id="Group_376" data-name="Group 376" transform="translate(-255.443 -211.902)">
        <circle id="Ellipse_2" data-name="Ellipse 2" cx="44.291" cy="44.291" r="44.291" transform="translate(607.443 323.902)" fill="#fff"/>
        <g id="Group_356" data-name="Group 356" transform="translate(619.763 337.244)">
          <circle id="Ellipse_3" data-name="Ellipse 3" cx="15.983" cy="15.983" r="15.983" transform="translate(15.987 0)" fill="#01c5c4"/>
          <path id="Path_210" data-name="Path 210" d="M725.725,549.977c.227,3.4-16.55,17.23-32.193,17-15.024-.218-31.286-13.376-31.74-17-.365-2.925,16.743-12.453,31.74-13.376C708.268,535.694,725.648,548.824,725.725,549.977Z" transform="translate(-661.786 -501.687)" fill="#01c5c4"/>
        </g>
      </g>
      <text id="View_Profile" data-name="View Profile" transform="translate(297 280)" fill="#fff" font-size="20" font-family="Roboto-Regular, Roboto"><tspan x="0" y="0">View Profile</tspan></text>
    </g>
  </g>
</svg>
