<svg xmlns="http://www.w3.org/2000/svg" xmlns:xlink="http://www.w3.org/1999/xlink" width="1920" height="1080" viewBox="0 0 1920 1080">
  <defs>
    <clipPath id="clip-path">
      <rect width="360" height="312" fill="none"/>
    </clipPath>
    <linearGradient id="linear-gradient" x1="0.934" y1="0.296" x2="0.048" y2="0.787" gradientUnits="objectBoundingBox">
      <stop offset="0.32" stop-color="#f37335"/>
      <stop offset="0.36" stop-color="#f67c30"/>
      <stop offset="0.48" stop-color="#fb8f24"/>
      <stop offset="0.6" stop-color="#fe9a1d"/>
      <stop offset="0.73" stop-color="#ff9e1b"/>
    </linearGradient>
    <linearGradient id="linear-gradient-2" x1="0.51" y1="1.03" x2="0.21" y2="0.123" xlink:href="#linear-gradient"/>
    <filter id="Base" x="-15" y="-12" width="1950" height="100" filterUnits="userSpaceOnUse">
      <feOffset dy="3" input="SourceAlpha"/>
      <feGaussianBlur stdDeviation="5" result="blur"/>
      <feFlood flood-opacity="0.161"/>
      <feComposite operator="in" in2="blur"/>
      <feComposite in="SourceGraphic"/>
    </filter>
    <linearGradient id="linear-gradient-3" x1="0.935" y1="0.296" x2="0.048" y2="0.787" gradientUnits="objectBoundingBox">
      <stop offset="0.316" stop-color="#f37335"/>
      <stop offset="0.36" stop-color="#f57c2f"/>
      <stop offset="0.479" stop-color="#fa8e24"/>
      <stop offset="0.601" stop-color="#fd9a1d"/>
      <stop offset="0.731" stop-color="#ff9e1b"/>
    </linearGradient>
    <linearGradient id="linear-gradient-4" x1="0.51" y1="1.03" x2="0.21" y2="0.123" xlink:href="#linear-gradient-3"/>
    <clipPath id="clip-Faculty_-_Add_question">
      <rect width="1920" height="1080"/>
    </clipPath>
  </defs>
  <g id="Faculty_-_Add_question" data-name="Faculty - Add question" clip-path="url(#clip-Faculty_-_Add_question)">
    <rect width="1920" height="1080" fill="#fff"/>
    <text id="B18CS5010_-_FAFL" data-name="B18CS5010 - FAFL" transform="translate(585 158)" fill="#3d4251" font-size="41" font-family="FiraSans-Medium, Fira Sans" font-weight="500"><tspan x="0" y="0">B18CS5010 - FAFL</tspan></text>
    <g id="Path_960" data-name="Path 960" transform="translate(585 209)" fill="#fff">
      <path d="M 957 130 L 10 130 C 5.037411689758301 130 1 125.9625854492188 1 121 L 1 10 C 1 5.037411689758301 5.037411689758301 1 10 1 L 957 1 C 961.9625854492188 1 966 5.037411689758301 966 10 L 966 121 C 966 125.9625854492188 961.9625854492188 130 957 130 Z" stroke="none"/>
      <path d="M 10 2 C 5.5887451171875 2 2 5.588752746582031 2 10 L 2 121 C 2 125.411247253418 5.5887451171875 129 10 129 L 957 129 C 961.4112548828125 129 965 125.411247253418 965 121 L 965 10 C 965 5.588752746582031 961.4112548828125 2 957 2 L 10 2 M 10 0 L 957 0 C 962.5227661132813 0 967 4.477127075195313 967 10 L 967 121 C 967 126.5228729248047 962.5227661132813 131 957 131 L 10 131 C 4.47711181640625 131 0 126.5228729248047 0 121 L 0 10 C 0 4.477127075195313 4.47711181640625 0 10 0 Z" stroke="none" fill="#f57f25"/>
    </g>
    <text id="Add_your_Question_here_.." data-name="Add your Question here ….." transform="translate(608 251)" fill="#3d4251" font-size="20" font-family="Roboto-Regular, Roboto" opacity="0.55"><tspan x="0" y="0">Add your Question here …..</tspan></text>
    <g id="Repeat_Grid_11" data-name="Repeat Grid 11" transform="translate(585 433)" clip-path="url(#clip-path)">
      <g id="Group_1702" data-name="Group 1702" transform="translate(-585 -403)">
        <g id="Rectangle_599" data-name="Rectangle 599" transform="translate(585 403)" fill="#fff" stroke="#4cb2be" stroke-width="2">
          <rect width="360" height="50" rx="10" stroke="none"/>
          <rect x="1" y="1" width="358" height="48" rx="9" fill="none"/>
        </g>
        <text id="Option_1" data-name="Option 1" transform="translate(608 435)" fill="#3d4251" font-size="20" font-family="Roboto-Regular, Roboto" opacity="0.55"><tspan x="0" y="0">Option 1</tspan></text>
      </g>
      <g id="Group_1702-2" data-name="Group 1702" transform="translate(-585 -321)">
        <g id="Rectangle_599-2" data-name="Rectangle 599" transform="translate(585 403)" fill="#fff" stroke="#4cb2be" stroke-width="2">
          <rect width="360" height="50" rx="10" stroke="none"/>
          <rect x="1" y="1" width="358" height="48" rx="9" fill="none"/>
        </g>
        <text id="Option_2" data-name="Option 2" transform="translate(608 435)" fill="#3d4251" font-size="20" font-family="Roboto-Regular, Roboto" opacity="0.55"><tspan x="0" y="0">Option 2</tspan></text>
      </g>
      <g id="Group_1702-3" data-name="Group 1702" transform="translate(-585 -239)">
        <g id="Rectangle_599-3" data-name="Rectangle 599" transform="translate(585 403)" fill="#fff" stroke="#4cb2be" stroke-width="2">
          <rect width="360" height="50" rx="10" stroke="none"/>
          <rect x="1" y="1" width="358" height="48" rx="9" fill="none"/>
        </g>
        <text id="Option_3" data-name="Option 3" transform="translate(608 435)" fill="#3d4251" font-size="20" font-family="Roboto-Regular, Roboto" opacity="0.55"><tspan x="0" y="0">Option 3</tspan></text>
      </g>
      <g id="Group_1702-4" data-name="Group 1702" transform="translate(-585 -157)">
        <g id="Rectangle_599-4" data-name="Rectangle 599" transform="translate(585 403)" fill="#fff" stroke="#4cb2be" stroke-width="2">
          <rect width="360" height="50" rx="10" stroke="none"/>
          <rect x="1" y="1" width="358" height="48" rx="9" fill="none"/>
        </g>
        <text id="Option_4" data-name="Option 4" transform="translate(608 435)" fill="#3d4251" font-size="20" font-family="Roboto-Regular, Roboto" opacity="0.55"><tspan x="0" y="0">Option 4</tspan></text>
      </g>
    </g>
    <g id="Button" transform="translate(585 775)">
      <rect id="Rectangle_1" data-name="Rectangle 1" width="145" height="37" rx="3" fill="#01c5c4"/>
      <text id="ADD_QUESTION" data-name="ADD QUESTION" transform="translate(26.52 23)" fill="#fff" font-size="14" font-family="FiraSans-Regular, Fira Sans"><tspan x="0" y="0">ADD QUESTION</tspan></text>
    </g>
    <g id="Group_465" data-name="Group 465" transform="translate(-6)">
      <text id="ADD_IMAGE" data-name="ADD IMAGE" transform="translate(626 389)" fill="#fff" font-size="14" font-family="FiraSans-Regular, Fira Sans"><tspan x="0" y="0">ADD IMAGE</tspan></text>
      <g id="Group_464" data-name="Group 464" transform="translate(5 -1)">
        <g id="Group_455" data-name="Group 455" transform="translate(613.249 378)">
          <path id="Path_381" data-name="Path 381" d="M160.865,23.028a3.265,3.265,0,0,1,1.165,0,2.939,2.939,0,0,1,2.138,1.864,2.9,2.9,0,0,1-3.309,3.836,3.052,3.052,0,0,1-2.019-1.569,2.976,2.976,0,0,1-.116-2.255A2.924,2.924,0,0,1,160.865,23.028Zm-.843,3.15c.364.043.732.011,1.1.018a9.223,9.223,0,0,0,.025,1.058.312.312,0,0,0,.582.057,5.78,5.78,0,0,0,.046-1.115c.366-.006.735.023,1.1-.017a.407.407,0,0,0,0-.608c-.366-.039-.735-.011-1.1-.017a6.109,6.109,0,0,0-.042-1.109.31.31,0,0,0-.582.056c-.034.35-.022.7-.029,1.052-.35,0-.7,0-1.05,0A.363.363,0,0,0,160.023,26.177Z" transform="translate(-158.555 -22.975)" fill="#fff"/>
        </g>
        <g id="Group_456" data-name="Group 456" transform="translate(601.004 380.576)">
          <path id="Path_382" data-name="Path 382" d="M25.626,51a3.026,3.026,0,0,1,.548-.023c3.623,0,7.247,0,10.87,0a3.627,3.627,0,0,0,.7,2.452,3.589,3.589,0,0,0,3.145,1.4c.013,1.457,0,2.914,0,4.371a12.85,12.85,0,0,1-.027,1.63l-.13-.164c-1.5-1.521-3.022-3.022-4.528-4.537h-.279c-.79.8-1.6,1.582-2.378,2.387l-.113,0c-1-1.02-2.02-2.021-3.025-3.035h-.279q-1.8,1.8-3.607,3.607c-.352.363-.732.7-1.056,1.091-.062-1.767-.012-3.537-.024-5.306-.028-1.072.016-2.143,0-3.216C25.459,51.445,25.383,51.14,25.626,51Zm7.53,1.277a1.641,1.641,0,0,0,0,3.2q.335.012.671,0a1.7,1.7,0,0,0,1.246-1.314,1.637,1.637,0,0,0-.9-1.749c-.118-.043-.235-.086-.35-.132C33.6,52.271,33.379,52.271,33.156,52.28Z" transform="translate(-25.437 -50.979)" fill="#fff"/>
        </g>
        <path id="Path_383" data-name="Path 383" d="M102.539,72.829a.964.964,0,1,1,1.743.556,1.023,1.023,0,0,1-1.03.407A1.055,1.055,0,0,1,102.539,72.829Z" transform="translate(505.558 310.647)" fill="#fff"/>
        <path id="Path_384" data-name="Path 384" d="M30.2,108.53a8.691,8.691,0,0,1,.838.8c2.053,2.038,4.085,4.1,6.145,6.132-3.858.029-7.716,0-11.575.013-.08-.093-.208-.174-.2-.314-.014-.463,0-.926-.018-1.389.007-.183-.038-.4.121-.538C27.072,111.661,28.653,110.111,30.2,108.53Z" transform="translate(575.607 277.34)" fill="#fff"/>
        <path id="Path_385" data-name="Path 385" d="M119.979,115.93l.112,0c1.569,1.6,3.176,3.154,4.735,4.758a5.3,5.3,0,0,1,.036,1.095c.014.174-.084.4-.285.4-.833.016-1.668,0-2.5.006-1.367-1.417-2.782-2.786-4.166-4.186C118.6,117.314,119.3,116.631,119.979,115.93Z" transform="translate(491.601 270.621)" fill="#fff"/>
      </g>
    </g>
    <g id="Group_468" data-name="Group 468" transform="translate(564.607 347.025)">
      <g id="Group_466" data-name="Group 466" transform="translate(52.719 22.975)">
        <path id="Path_392" data-name="Path 392" d="M163.709,23.093a7.283,7.283,0,0,1,2.6,0,6.557,6.557,0,0,1,4.769,4.158,6.463,6.463,0,0,1-7.381,8.557,6.808,6.808,0,0,1-4.5-3.5,6.639,6.639,0,0,1-.259-5.03A6.522,6.522,0,0,1,163.709,23.093Zm-1.88,7.026c.813.1,1.633.025,2.45.041a20.57,20.57,0,0,0,.055,2.36.7.7,0,0,0,1.3.127,12.892,12.892,0,0,0,.1-2.487c.817-.012,1.64.051,2.452-.039a.909.909,0,0,0,.006-1.356c-.817-.086-1.64-.025-2.458-.037a13.631,13.631,0,0,0-.094-2.475.692.692,0,0,0-1.3.125c-.076.78-.049,1.566-.066,2.348-.782,0-1.562,0-2.343.01A.81.81,0,0,0,161.829,30.119Z" transform="translate(-158.555 -22.975)" fill="#f57f25"/>
      </g>
      <g id="Group_467" data-name="Group 467" transform="translate(25.402 28.722)">
        <path id="Path_393" data-name="Path 393" d="M25.858,51.033a6.75,6.75,0,0,1,1.223-.051c8.083.008,16.166-.006,24.25.006A8.092,8.092,0,0,0,52.9,56.458a8.007,8.007,0,0,0,7.016,3.134c.029,3.251-.006,6.5,0,9.752a28.666,28.666,0,0,1-.06,3.636c-.072-.092-.218-.275-.289-.365-3.349-3.392-6.741-6.741-10.1-10.121h-.622c-1.763,1.781-3.558,3.53-5.3,5.325l-.252.008c-2.231-2.276-4.506-4.508-6.749-6.77h-.622q-4.02,4.026-8.046,8.046c-.786.811-1.633,1.564-2.356,2.434-.137-3.942-.027-7.89-.053-11.836-.062-2.391.035-4.781,0-7.174C25.487,52.018,25.317,51.338,25.858,51.033Zm16.8,2.848a3.662,3.662,0,0,0,0,7.133q.748.028,1.5,0a3.789,3.789,0,0,0,2.781-2.93,3.651,3.651,0,0,0-2-3.9c-.263-.1-.523-.193-.782-.3C43.652,53.86,43.153,53.86,42.657,53.881Z" transform="translate(-25.437 -50.979)" fill="#f57f25"/>
      </g>
      <path id="Path_394" data-name="Path 394" d="M102.541,74.035a2.15,2.15,0,1,1,3.889,1.239,2.283,2.283,0,0,1-2.3.907A2.354,2.354,0,0,1,102.541,74.035Z" transform="translate(-61.315 -38.845)" fill="#f57f25"/>
      <path id="Path_395" data-name="Path 395" d="M36.121,108.53a19.387,19.387,0,0,1,1.869,1.781c4.58,4.547,9.113,9.144,13.708,13.679-8.606.066-17.213,0-25.822.029-.179-.207-.464-.388-.441-.7-.031-1.032,0-2.066-.041-3.1.016-.408-.084-.9.269-1.2C29.139,115.515,32.667,112.058,36.121,108.53Z" transform="translate(0 -67.998)" fill="#f57f25"/>
      <path id="Path_396" data-name="Path 396" d="M122.525,115.93c.064,0,.187,0,.25,0,3.5,3.558,7.086,7.037,10.564,10.615a11.815,11.815,0,0,1,.08,2.442c.031.388-.187.9-.636.893-1.859.035-3.72,0-5.58.014-3.049-3.16-6.206-6.216-9.294-9.339C119.451,119.018,121.009,117.494,122.525,115.93Z" transform="translate(-73.532 -73.88)" fill="#f57f25"/>
    </g>
    <g id="Footer" transform="translate(0 1009)">
      <rect id="Base-2" data-name="Base" width="1920" height="71" fill="#3d4251"/>
      <text id="Terms_of_use_Privacy_Policy_2020_All_rights_Reserved_Powered_by_parikshak.com" data-name="Terms of use | Privacy Policy
©  2020 All rights Reserved | Powered by parikshak.com" transform="translate(960 28)" fill="#fff" font-size="13" font-family="ArialMT, Arial"><tspan x="-82.961" y="0">Terms of use | Privacy Policy</tspan><tspan x="-162.192" y="24" xml:space="preserve">©  2020 All rights Reserved | Powered by parikshak.com</tspan></text>
      <g id="Layer_1" data-name="Layer 1" transform="translate(277 9)">
        <path id="Path_230" data-name="Path 230" d="M537.142,32.31c-7.521,2.1-25.9,29.389-25.9,29.389L506,53.608l3.514.342,1.519,2.525S523.984,35.52,537.142,32.31Z" transform="translate(-452.765 -28.911)" fill="url(#linear-gradient)"/>
        <path id="Path_231" data-name="Path 231" d="M504.989,294.99l9.694,20.25h-4.476l-7.8-14.005L500.4,315.24H496.13l3.879-20.216,2.416,3.678Z" transform="translate(-443.933 -263.955)" fill="url(#linear-gradient-2)"/>
        <path id="Path_232" data-name="Path 232" d="M660.17,253.643l-1.147,1.72a5.712,5.712,0,0,0-3.051-.987,2.361,2.361,0,0,0-1.353.332,1.027,1.027,0,0,0-.482.884,1.123,1.123,0,0,0,.211.688,1.878,1.878,0,0,0,.746.515,12.4,12.4,0,0,0,1.594.54,6.974,6.974,0,0,1,2.925,1.4,3.119,3.119,0,0,1,.947,2.431A3.257,3.257,0,0,1,659.086,264a6.249,6.249,0,0,1-3.646,1.021,7.7,7.7,0,0,1-2.719-.459A6.6,6.6,0,0,1,650.6,263.3l1.473-1.652a5.4,5.4,0,0,0,3.3,1.193,2.8,2.8,0,0,0,1.571-.39,1.226,1.226,0,0,0,.585-1.077,1.432,1.432,0,0,0-.218-.842,1.761,1.761,0,0,0-.781-.55,16.291,16.291,0,0,0-1.754-.585,5.9,5.9,0,0,1-2.735-1.411,3.1,3.1,0,0,1-.871-2.259,3,3,0,0,1,.585-1.813,3.893,3.893,0,0,1,1.651-1.262,6.146,6.146,0,0,1,2.443-.459A6.82,6.82,0,0,1,660.17,253.643Z" transform="translate(-582.152 -225.658)" fill="#fff"/>
        <path id="Path_233" data-name="Path 233" d="M776.931,215.7a3.819,3.819,0,0,1,.917,2.706v8.785h-2.935v-8.326a2.331,2.331,0,0,0-.379-1.514,1.389,1.389,0,0,0-1.112-.436,2.19,2.19,0,0,0-1.354.47,5.365,5.365,0,0,0-1.192,1.341v8.464H767.94V210.218l2.936-.3V216.5a4.43,4.43,0,0,1,3.532-1.789A3.273,3.273,0,0,1,776.931,215.7Z" transform="translate(-687.147 -187.835)" fill="#fff"/>
        <path id="Path_234" data-name="Path 234" d="M895.644,262.52a1.391,1.391,0,0,0,.7.516l-.62,1.951a3.744,3.744,0,0,1-1.683-.505,2.6,2.6,0,0,1-1-1.262,3.882,3.882,0,0,1-1.548,1.368,4.734,4.734,0,0,1-2.076.447A3.923,3.923,0,0,1,886.552,264a3.606,3.606,0,0,1-1.052-2.707,3.5,3.5,0,0,1,1.433-3.015,6.858,6.858,0,0,1,4.091-1.042h1.514v-.688a2.089,2.089,0,0,0-.54-1.64,2.615,2.615,0,0,0-1.732-.47,10.245,10.245,0,0,0-3.211.642l-.688-2a12.223,12.223,0,0,1,4.4-.872q4.655,0,4.657,4.175v5.092A1.94,1.94,0,0,0,895.644,262.52Zm-3.108-1.113v-2.453H891.32q-2.841,0-2.841,2.109a1.948,1.948,0,0,0,.435,1.354,1.644,1.644,0,0,0,1.285.482A2.594,2.594,0,0,0,892.536,261.407Z" transform="translate(-792.338 -225.675)" fill="#fff"/>
        <path id="Path_235" data-name="Path 235" d="M1016.575,209.48V226.8h-2.935v-17Zm7.271,5.184-4.037,5.345,4.427,6.789h-3.367l-4.175-6.628,4.06-5.5Z" transform="translate(-906.997 -187.441)" fill="#fff"/>
        <path id="Path_236" data-name="Path 236" d="M112.92,253.764a8.518,8.518,0,0,1,1.1,4.7,9.234,9.234,0,0,1-.562,3.338,5.062,5.062,0,0,1-1.652,2.282,4.134,4.134,0,0,1-2.581.83,3.788,3.788,0,0,1-3.051-1.331v5.665l-2.936.316V252.434h2.569l.161,1.491a4.758,4.758,0,0,1,1.628-1.376,4.253,4.253,0,0,1,1.93-.459A3.776,3.776,0,0,1,112.92,253.764Zm-1.972,4.725a6.7,6.7,0,0,0-.574-3.211,1.869,1.869,0,0,0-1.72-.988,2.359,2.359,0,0,0-1.376.447,3.893,3.893,0,0,0-1.1,1.2V261.4a2.575,2.575,0,0,0,2.225,1.262Q110.949,262.663,110.949,258.489Z" transform="translate(-92.378 -225.568)" fill="#fff"/>
        <path id="Path_237" data-name="Path 237" d="M232.053,262.544a1.393,1.393,0,0,0,.7.517l-.619,1.949a3.727,3.727,0,0,1-1.683-.5,2.6,2.6,0,0,1-1-1.262,3.892,3.892,0,0,1-1.549,1.368,4.725,4.725,0,0,1-2.076.447,3.924,3.924,0,0,1-2.867-1.032,3.607,3.607,0,0,1-1.052-2.707,3.5,3.5,0,0,1,1.434-3.016,6.874,6.874,0,0,1,4.087-1.046h1.514v-.688a2.094,2.094,0,0,0-.539-1.64,2.6,2.6,0,0,0-1.732-.47,10.222,10.222,0,0,0-3.211.643l-.688-2a12.266,12.266,0,0,1,4.4-.871q4.655,0,4.655,4.175V261.5A1.951,1.951,0,0,0,232.053,262.544Zm-3.108-1.112v-2.455H227.73q-2.841,0-2.841,2.11a1.941,1.941,0,0,0,.437,1.353,1.649,1.649,0,0,0,1.284.482A2.594,2.594,0,0,0,228.945,261.431Z" transform="translate(-198.563 -225.693)" fill="#fff"/>
        <path id="Path_238" data-name="Path 238" d="M357.207,255.918l-.5,2.841a4.391,4.391,0,0,0-1.077-.135,2.062,2.062,0,0,0-1.7.768,5.868,5.868,0,0,0-.981,2.352v6.468H350V256.079h2.546l.276,2.385a4.365,4.365,0,0,1,1.263-2.007,2.857,2.857,0,0,1,1.9-.7A4.362,4.362,0,0,1,357.207,255.918Z" transform="translate(-313.177 -228.85)" fill="#fff"/>
        <path id="Path_239" data-name="Path 239" d="M435.741,200.886a1.733,1.733,0,0,1,.517,1.273,1.7,1.7,0,0,1-.517,1.262,1.843,1.843,0,0,1-1.341.5,1.811,1.811,0,0,1-1.319-.5,1.694,1.694,0,0,1-.516-1.262,1.732,1.732,0,0,1,.516-1.273,1.788,1.788,0,0,1,1.319-.516A1.815,1.815,0,0,1,435.741,200.886Zm.149,5.632v12.134h-2.936V206.518Z" transform="translate(-387.055 -179.289)" fill="#fff"/>
        <path id="Path_240" data-name="Path 240" d="M435,196.385v.881a3.783,3.783,0,0,1,3.185,0v-.889a3.987,3.987,0,0,0-1.605-.426A3.741,3.741,0,0,0,435,196.385Z" transform="translate(-389.235 -175.334)" fill="#e87b1a"/>
        <path id="Path_241" data-name="Path 241" d="M428.265,182.517l-2.089-1.157-2.746,1.572,1.217.553.005-.154a3.447,3.447,0,0,1,1.578-.4,3.7,3.7,0,0,1,1.6.387l.005.28.753-.407v1.245h-.19v.443l.254-.176.281.176v-.443h-.21V183.12h0l.316-.17-.316-.176Z" transform="translate(-378.882 -162.279)" fill="#e87b1a"/>
        <rect id="Rectangle_732" data-name="Rectangle 732" width="128.868" height="53.025" fill="none"/>
      </g>
    </g>
    <g id="Component_8_2" data-name="Component 8 – 2" transform="translate(275 69)">
      <rect id="Rectangle_719" data-name="Rectangle 719" width="265" height="1011" fill="#3d4251"/>
      <rect id="Rectangle_720" data-name="Rectangle 720" width="265" height="60" transform="translate(0 234)" fill="#666f88"/>
      <text id="Change_password" data-name="Change password" transform="translate(22 631)" fill="#fff" font-size="20" font-family="Roboto-Regular, Roboto"><tspan x="0" y="0">Change password</tspan></text>
      <text id="Logout" transform="translate(22 691)" fill="#fff" font-size="20" font-family="Roboto-Regular, Roboto"><tspan x="0" y="0">Logout</tspan></text>
      <text id="Exams" transform="translate(22 271)" fill="#fff" font-size="20" font-family="Roboto-Regular, Roboto"><tspan x="0" y="0">Exams</tspan></text>
      <text id="B18CS5010" transform="translate(43 331)" fill="#fff" font-size="20" font-family="Roboto-Regular, Roboto"><tspan x="0" y="0">B18CS5010</tspan></text>
      <text id="B18CS5020" transform="translate(43 391)" fill="#fff" font-size="20" font-family="Roboto-Regular, Roboto"><tspan x="0" y="0">B18CS5020</tspan></text>
      <text id="B18CS5030" transform="translate(43 451)" fill="#fff" font-size="20" font-family="Roboto-Regular, Roboto"><tspan x="0" y="0">B18CS5030</tspan></text>
      <text id="B18CS5040" transform="translate(43 511)" fill="#fff" font-size="20" font-family="Roboto-Regular, Roboto"><tspan x="0" y="0">B18CS5040</tspan></text>
      <text id="Others" transform="translate(43 571)" fill="#fff" font-size="20" font-family="Roboto-Regular, Roboto"><tspan x="0" y="0">Others</tspan></text>
      <g id="Group_376" data-name="Group 376" transform="translate(-530.443 -280.901)">
        <circle id="Ellipse_2" data-name="Ellipse 2" cx="44.291" cy="44.291" r="44.291" transform="translate(607.443 323.902)" fill="#fff"/>
        <g id="Group_356" data-name="Group 356" transform="translate(619.763 337.244)">
          <circle id="Ellipse_3" data-name="Ellipse 3" cx="15.983" cy="15.983" r="15.983" transform="translate(15.987 0)" fill="#01c5c4"/>
          <path id="Path_210" data-name="Path 210" d="M725.725,549.977c.227,3.4-16.55,17.23-32.193,17-15.024-.218-31.286-13.376-31.74-17-.365-2.925,16.743-12.453,31.74-13.376C708.268,535.694,725.648,548.824,725.725,549.977Z" transform="translate(-661.786 -501.687)" fill="#01c5c4"/>
        </g>
      </g>
      <text id="View_Profile" data-name="View Profile" transform="translate(22 211)" fill="#fff" font-size="20" font-family="Roboto-Regular, Roboto"><tspan x="0" y="0">View Profile</tspan></text>
      <path id="Polygon_1" data-name="Polygon 1" d="M9,0l9,16H0Z" transform="translate(38 315) rotate(90)" fill="#fff"/>
    </g>
    <g id="Component_6_16" data-name="Component 6 – 16">
      <g id="Base-3" data-name="Base">
        <g transform="matrix(1, 0, 0, 1, 0, 0)" filter="url(#Base)">
          <path id="Base-4" data-name="Base" d="M0,0H1920a0,0,0,0,1,0,0V40a30,30,0,0,1-30,30H30A30,30,0,0,1,0,40V0A0,0,0,0,1,0,0Z" fill="#fff" opacity="0.9"/>
        </g>
      </g>
      <text id="HOW_IT_WORKS" data-name="HOW IT WORKS" transform="translate(548 40)" fill="#3d4251" font-size="16" font-family="FiraSans-Medium, Fira Sans" font-weight="500"><tspan x="0" y="0">HOW IT WORKS</tspan></text>
      <text id="ABOUT" transform="translate(462 40)" fill="#3d4251" font-size="16" font-family="FiraSans-Medium, Fira Sans" font-weight="500"><tspan x="0" y="0">ABOUT</tspan></text>
      <text id="CONTACT" transform="translate(683 40)" fill="#3d4251" font-size="16" font-family="FiraSans-Medium, Fira Sans" font-weight="500"><tspan x="0" y="0">CONTACT</tspan></text>
      <g id="Group_1227" data-name="Group 1227" transform="translate(-0.252)">
        <g id="Group_1216" data-name="Group 1216" transform="translate(332.896 7)">
          <path id="Path_428" data-name="Path 428" d="M901.106,103.981c-8.669,2.429-29.849,33.876-29.849,33.876l-6.042-9.327,4.051.39,1.751,2.907s14.928-24.147,30.088-27.846Z" transform="translate(-864.02 -103.981)" fill="url(#linear-gradient-3)"/>
          <path id="Path_429" data-name="Path 429" d="M865.563,366.654,876.736,390h-5.158l-8.986-16.143L860.277,390h-4.926l4.471-23.3,2.785,4.24Z" transform="translate(-855.352 -334.8)" fill="url(#linear-gradient-4)"/>
        </g>
        <g id="Group_1217" data-name="Group 1217" transform="translate(351.635 28.485)">
          <path id="Path_430" data-name="Path 430" d="M1020.9,325.544l-1.322,1.983a6.573,6.573,0,0,0-3.516-1.137,2.721,2.721,0,0,0-1.56.383,1.182,1.182,0,0,0-.555,1.018,1.285,1.285,0,0,0,.238.793,2.165,2.165,0,0,0,.859.595,14.327,14.327,0,0,0,1.837.621,8.069,8.069,0,0,1,3.371,1.613,3.61,3.61,0,0,1,1.1,2.8,3.758,3.758,0,0,1-1.692,3.265,7.189,7.189,0,0,1-4.2,1.177,8.887,8.887,0,0,1-3.133-.529,7.592,7.592,0,0,1-2.446-1.454l1.692-1.9a6.241,6.241,0,0,0,3.807,1.375,3.221,3.221,0,0,0,1.811-.449,1.415,1.415,0,0,0,.674-1.243,1.65,1.65,0,0,0-.251-.965,2.07,2.07,0,0,0-.9-.635,18.894,18.894,0,0,0-2.022-.674,6.751,6.751,0,0,1-3.146-1.626,3.606,3.606,0,0,1-1-2.6,3.46,3.46,0,0,1,.674-2.089,4.477,4.477,0,0,1,1.9-1.454,7.073,7.073,0,0,1,2.816-.529A7.867,7.867,0,0,1,1020.9,325.544Z" transform="translate(-1009.871 -318.696)" fill="#4f4f57"/>
          <path id="Path_431" data-name="Path 431" d="M1137.526,288.245a4.4,4.4,0,0,1,1.057,3.12v10.126H1135.2v-9.6a2.685,2.685,0,0,0-.436-1.745,1.607,1.607,0,0,0-1.282-.5,2.525,2.525,0,0,0-1.56.542,6.181,6.181,0,0,0-1.375,1.547v9.756h-3.384V281.927l3.384-.344v7.588a5.107,5.107,0,0,1,4.072-2.062A3.779,3.779,0,0,1,1137.526,288.245Z" transform="translate(-1112.938 -281.53)" fill="#4f4f57"/>
          <path id="Path_432" data-name="Path 432" d="M1256.369,335.762a1.6,1.6,0,0,0,.806.595l-.714,2.247a4.325,4.325,0,0,1-1.943-.582,2.971,2.971,0,0,1-1.15-1.454,4.482,4.482,0,0,1-1.785,1.573,5.446,5.446,0,0,1-2.393.516,4.522,4.522,0,0,1-3.3-1.19,4.169,4.169,0,0,1-1.216-3.12,4.036,4.036,0,0,1,1.652-3.477,7.926,7.926,0,0,1,4.719-1.2h1.745v-.793a2.413,2.413,0,0,0-.621-1.89,3.006,3.006,0,0,0-2-.542,11.8,11.8,0,0,0-3.7.74l-.793-2.3a14.129,14.129,0,0,1,5.076-1q5.367,0,5.367,4.812v5.869A2.24,2.24,0,0,0,1256.369,335.762Zm-3.583-1.282v-2.829h-1.4q-3.279,0-3.278,2.432a2.242,2.242,0,0,0,.5,1.56,1.9,1.9,0,0,0,1.481.555A2.994,2.994,0,0,0,1252.787,334.48Z" transform="translate(-1216.196 -318.696)" fill="#4f4f57"/>
          <path id="Path_433" data-name="Path 433" d="M1376.245,281.147v19.961h-3.384V281.517Zm8.381,5.975-4.653,6.16,5.1,7.826h-3.887l-4.812-7.641,4.68-6.345Z" transform="translate(-1328.841 -281.147)" fill="#4f4f57"/>
        </g>
        <path id="Path_434" data-name="Path 434" d="M473.631,325.684a9.822,9.822,0,0,1,1.269,5.42,10.635,10.635,0,0,1-.648,3.847,5.849,5.849,0,0,1-1.9,2.631,4.784,4.784,0,0,1-2.974.952A4.362,4.362,0,0,1,465.858,337v6.53l-3.384.37v-19.75h2.961l.185,1.719a5.482,5.482,0,0,1,1.877-1.586,4.9,4.9,0,0,1,2.221-.529A4.356,4.356,0,0,1,473.631,325.684Zm-2.274,5.446a7.734,7.734,0,0,0-.661-3.7,2.152,2.152,0,0,0-1.983-1.137,2.724,2.724,0,0,0-1.586.516,4.5,4.5,0,0,0-1.269,1.388v6.293a2.97,2.97,0,0,0,2.565,1.454Q471.358,335.942,471.357,331.13Z" transform="translate(-177.222 -290.102)" fill="#4f4f57"/>
        <path id="Path_435" data-name="Path 435" d="M592.773,335.818a1.606,1.606,0,0,0,.806.595l-.714,2.247a4.327,4.327,0,0,1-1.943-.582,2.972,2.972,0,0,1-1.15-1.454,4.482,4.482,0,0,1-1.785,1.573,5.446,5.446,0,0,1-2.393.515,4.522,4.522,0,0,1-3.3-1.19,4.168,4.168,0,0,1-1.216-3.12,4.036,4.036,0,0,1,1.652-3.477,7.927,7.927,0,0,1,4.719-1.2h1.745v-.793a2.413,2.413,0,0,0-.621-1.89,3,3,0,0,0-2-.542,11.8,11.8,0,0,0-3.7.74l-.793-2.3a14.128,14.128,0,0,1,5.076-1q5.367,0,5.367,4.812v5.869A2.242,2.242,0,0,0,592.773,335.818Zm-3.582-1.282v-2.829h-1.4q-3.279,0-3.278,2.432a2.242,2.242,0,0,0,.5,1.56,1.9,1.9,0,0,0,1.481.555A2.994,2.994,0,0,0,589.191,334.536Z" transform="translate(-281.439 -290.26)" fill="#4f4f57"/>
        <path id="Path_436" data-name="Path 436" d="M717.566,327.607l-.582,3.278a5.112,5.112,0,0,0-1.242-.159,2.377,2.377,0,0,0-1.957.886,6.809,6.809,0,0,0-1.137,2.71v7.456h-3.384V327.792H712.2l.317,2.75a5.029,5.029,0,0,1,1.454-2.313,3.3,3.3,0,0,1,2.194-.806A5.006,5.006,0,0,1,717.566,327.607Z" transform="translate(-394.084 -293.325)" fill="#4f4f57"/>
        <g id="Group_1218" data-name="Group 1218" transform="translate(324.08 25.073)">
          <path id="Path_437" data-name="Path 437" d="M795.45,272.641a1.994,1.994,0,0,1,.595,1.467,1.95,1.95,0,0,1-.595,1.454,2.118,2.118,0,0,1-1.547.582,2.083,2.083,0,0,1-1.52-.582,1.95,1.95,0,0,1-.595-1.454,1.994,1.994,0,0,1,.595-1.467,2.058,2.058,0,0,1,1.52-.595A2.093,2.093,0,0,1,795.45,272.641Zm.172,6.491v13.986h-3.384V279.132Z" transform="translate(-790.68 -269.738)" fill="#4f4f57"/>
          <path id="Path_438" data-name="Path 438" d="M794.249,268.089V269.1a4.359,4.359,0,0,1,3.671,0v-1.029a4.591,4.591,0,0,0-1.85-.491A4.286,4.286,0,0,0,794.249,268.089Z" transform="translate(-792.842 -265.817)" fill="#e87b1a"/>
          <path id="Path_439" data-name="Path 439" d="M788.224,254.35l-2.409-1.336-3.165,1.812,1.405.639.006-.176a3.975,3.975,0,0,1,1.817-.459,4.26,4.26,0,0,1,1.846.447l.006.323.869-.47v1.435h-.22v.51l.292-.2.324.2v-.51h-.238v-1.52h0l.365-.2-.365-.2Z" transform="translate(-782.65 -253.014)" fill="#e87b1a"/>
        </g>
      </g>
    </g>
  </g>
</svg>
