<svg xmlns="http://www.w3.org/2000/svg" xmlns:xlink="http://www.w3.org/1999/xlink" width="1920" height="1080" viewBox="0 0 1920 1080">
  <defs>
    <linearGradient id="linear-gradient" x1="0.934" y1="0.296" x2="0.048" y2="0.787" gradientUnits="objectBoundingBox">
      <stop offset="0.32" stop-color="#f37335"/>
      <stop offset="0.36" stop-color="#f67c30"/>
      <stop offset="0.48" stop-color="#fb8f24"/>
      <stop offset="0.6" stop-color="#fe9a1d"/>
      <stop offset="0.73" stop-color="#ff9e1b"/>
    </linearGradient>
    <linearGradient id="linear-gradient-2" x1="0.51" y1="1.03" x2="0.21" y2="0.123" xlink:href="#linear-gradient"/>
    <filter id="Base" x="-15" y="-13" width="1950" height="100" filterUnits="userSpaceOnUse">
      <feOffset dy="3" input="SourceAlpha"/>
      <feGaussianBlur stdDeviation="5" result="blur"/>
      <feFlood flood-opacity="0.161"/>
      <feComposite operator="in" in2="blur"/>
      <feComposite in="SourceGraphic"/>
    </filter>
    <linearGradient id="linear-gradient-3" x1="0.935" y1="0.296" x2="0.048" y2="0.787" gradientUnits="objectBoundingBox">
      <stop offset="0.316" stop-color="#f37335"/>
      <stop offset="0.36" stop-color="#f57c2f"/>
      <stop offset="0.479" stop-color="#fa8e24"/>
      <stop offset="0.601" stop-color="#fd9a1d"/>
      <stop offset="0.731" stop-color="#ff9e1b"/>
    </linearGradient>
    <linearGradient id="linear-gradient-4" x1="0.51" y1="1.03" x2="0.21" y2="0.123" xlink:href="#linear-gradient-3"/>
    <clipPath id="clip-Q_A_3">
      <rect width="1920" height="1080"/>
    </clipPath>
  </defs>
  <g id="Q_A_3" data-name="Q&amp;A – 3" clip-path="url(#clip-Q_A_3)">
    <rect width="1920" height="1080" fill="#fff"/>
    <g id="Footer" transform="translate(0 1009)">
      <rect id="Base-2" data-name="Base" width="1920" height="71" fill="#3d4251"/>
      <text id="Terms_of_use_Privacy_Policy_2020_All_rights_Reserved_Powered_by_parikshak.com" data-name="Terms of use | Privacy Policy
©  2020 All rights Reserved | Powered by parikshak.com" transform="translate(960 28)" fill="#fff" font-size="13" font-family="ArialMT, Arial"><tspan x="-82.961" y="0">Terms of use | Privacy Policy</tspan><tspan x="-162.192" y="24" xml:space="preserve">©  2020 All rights Reserved | Powered by parikshak.com</tspan></text>
      <g id="Layer_1" data-name="Layer 1" transform="translate(277 9)">
        <path id="Path_230" data-name="Path 230" d="M537.142,32.31c-7.521,2.1-25.9,29.389-25.9,29.389L506,53.608l3.514.342,1.519,2.525S523.984,35.52,537.142,32.31Z" transform="translate(-452.765 -28.911)" fill="url(#linear-gradient)"/>
        <path id="Path_231" data-name="Path 231" d="M504.989,294.99l9.694,20.25h-4.476l-7.8-14.005L500.4,315.24H496.13l3.879-20.216,2.416,3.678Z" transform="translate(-443.933 -263.955)" fill="url(#linear-gradient-2)"/>
        <path id="Path_232" data-name="Path 232" d="M660.17,253.643l-1.147,1.72a5.712,5.712,0,0,0-3.051-.987,2.361,2.361,0,0,0-1.353.332,1.027,1.027,0,0,0-.482.884,1.123,1.123,0,0,0,.211.688,1.878,1.878,0,0,0,.746.515,12.4,12.4,0,0,0,1.594.54,6.974,6.974,0,0,1,2.925,1.4,3.119,3.119,0,0,1,.947,2.431A3.257,3.257,0,0,1,659.086,264a6.249,6.249,0,0,1-3.646,1.021,7.7,7.7,0,0,1-2.719-.459A6.6,6.6,0,0,1,650.6,263.3l1.473-1.652a5.4,5.4,0,0,0,3.3,1.193,2.8,2.8,0,0,0,1.571-.39,1.226,1.226,0,0,0,.585-1.077,1.432,1.432,0,0,0-.218-.842,1.761,1.761,0,0,0-.781-.55,16.291,16.291,0,0,0-1.754-.585,5.9,5.9,0,0,1-2.735-1.411,3.1,3.1,0,0,1-.871-2.259,3,3,0,0,1,.585-1.813,3.893,3.893,0,0,1,1.651-1.262,6.146,6.146,0,0,1,2.443-.459A6.82,6.82,0,0,1,660.17,253.643Z" transform="translate(-582.152 -225.658)" fill="#fff"/>
        <path id="Path_233" data-name="Path 233" d="M776.931,215.7a3.819,3.819,0,0,1,.917,2.706v8.785h-2.935v-8.326a2.331,2.331,0,0,0-.379-1.514,1.389,1.389,0,0,0-1.112-.436,2.19,2.19,0,0,0-1.354.47,5.365,5.365,0,0,0-1.192,1.341v8.464H767.94V210.218l2.936-.3V216.5a4.43,4.43,0,0,1,3.532-1.789A3.273,3.273,0,0,1,776.931,215.7Z" transform="translate(-687.147 -187.835)" fill="#fff"/>
        <path id="Path_234" data-name="Path 234" d="M895.644,262.52a1.391,1.391,0,0,0,.7.516l-.62,1.951a3.744,3.744,0,0,1-1.683-.505,2.6,2.6,0,0,1-1-1.262,3.882,3.882,0,0,1-1.548,1.368,4.734,4.734,0,0,1-2.076.447A3.923,3.923,0,0,1,886.552,264a3.606,3.606,0,0,1-1.052-2.707,3.5,3.5,0,0,1,1.433-3.015,6.858,6.858,0,0,1,4.091-1.042h1.514v-.688a2.089,2.089,0,0,0-.54-1.64,2.615,2.615,0,0,0-1.732-.47,10.245,10.245,0,0,0-3.211.642l-.688-2a12.223,12.223,0,0,1,4.4-.872q4.655,0,4.657,4.175v5.092A1.94,1.94,0,0,0,895.644,262.52Zm-3.108-1.113v-2.453H891.32q-2.841,0-2.841,2.109a1.948,1.948,0,0,0,.435,1.354,1.644,1.644,0,0,0,1.285.482A2.594,2.594,0,0,0,892.536,261.407Z" transform="translate(-792.338 -225.675)" fill="#fff"/>
        <path id="Path_235" data-name="Path 235" d="M1016.575,209.48V226.8h-2.935v-17Zm7.271,5.184-4.037,5.345,4.427,6.789h-3.367l-4.175-6.628,4.06-5.5Z" transform="translate(-906.997 -187.441)" fill="#fff"/>
        <path id="Path_236" data-name="Path 236" d="M112.92,253.764a8.518,8.518,0,0,1,1.1,4.7,9.234,9.234,0,0,1-.562,3.338,5.062,5.062,0,0,1-1.652,2.282,4.134,4.134,0,0,1-2.581.83,3.788,3.788,0,0,1-3.051-1.331v5.665l-2.936.316V252.434h2.569l.161,1.491a4.758,4.758,0,0,1,1.628-1.376,4.253,4.253,0,0,1,1.93-.459A3.776,3.776,0,0,1,112.92,253.764Zm-1.972,4.725a6.7,6.7,0,0,0-.574-3.211,1.869,1.869,0,0,0-1.72-.988,2.359,2.359,0,0,0-1.376.447,3.893,3.893,0,0,0-1.1,1.2V261.4a2.575,2.575,0,0,0,2.225,1.262Q110.949,262.663,110.949,258.489Z" transform="translate(-92.378 -225.568)" fill="#fff"/>
        <path id="Path_237" data-name="Path 237" d="M232.053,262.544a1.393,1.393,0,0,0,.7.517l-.619,1.949a3.727,3.727,0,0,1-1.683-.5,2.6,2.6,0,0,1-1-1.262,3.892,3.892,0,0,1-1.549,1.368,4.725,4.725,0,0,1-2.076.447,3.924,3.924,0,0,1-2.867-1.032,3.607,3.607,0,0,1-1.052-2.707,3.5,3.5,0,0,1,1.434-3.016,6.874,6.874,0,0,1,4.087-1.046h1.514v-.688a2.094,2.094,0,0,0-.539-1.64,2.6,2.6,0,0,0-1.732-.47,10.222,10.222,0,0,0-3.211.643l-.688-2a12.266,12.266,0,0,1,4.4-.871q4.655,0,4.655,4.175V261.5A1.951,1.951,0,0,0,232.053,262.544Zm-3.108-1.112v-2.455H227.73q-2.841,0-2.841,2.11a1.941,1.941,0,0,0,.437,1.353,1.649,1.649,0,0,0,1.284.482A2.594,2.594,0,0,0,228.945,261.431Z" transform="translate(-198.563 -225.693)" fill="#fff"/>
        <path id="Path_238" data-name="Path 238" d="M357.207,255.918l-.5,2.841a4.391,4.391,0,0,0-1.077-.135,2.062,2.062,0,0,0-1.7.768,5.868,5.868,0,0,0-.981,2.352v6.468H350V256.079h2.546l.276,2.385a4.365,4.365,0,0,1,1.263-2.007,2.857,2.857,0,0,1,1.9-.7A4.362,4.362,0,0,1,357.207,255.918Z" transform="translate(-313.177 -228.85)" fill="#fff"/>
        <path id="Path_239" data-name="Path 239" d="M435.741,200.886a1.733,1.733,0,0,1,.517,1.273,1.7,1.7,0,0,1-.517,1.262,1.843,1.843,0,0,1-1.341.5,1.811,1.811,0,0,1-1.319-.5,1.694,1.694,0,0,1-.516-1.262,1.732,1.732,0,0,1,.516-1.273,1.788,1.788,0,0,1,1.319-.516A1.815,1.815,0,0,1,435.741,200.886Zm.149,5.632v12.134h-2.936V206.518Z" transform="translate(-387.055 -179.289)" fill="#fff"/>
        <path id="Path_240" data-name="Path 240" d="M435,196.385v.881a3.783,3.783,0,0,1,3.185,0v-.889a3.987,3.987,0,0,0-1.605-.426A3.741,3.741,0,0,0,435,196.385Z" transform="translate(-389.235 -175.334)" fill="#e87b1a"/>
        <path id="Path_241" data-name="Path 241" d="M428.265,182.517l-2.089-1.157-2.746,1.572,1.217.553.005-.154a3.447,3.447,0,0,1,1.578-.4,3.7,3.7,0,0,1,1.6.387l.005.28.753-.407v1.245h-.19v.443l.254-.176.281.176v-.443h-.21V183.12h0l.316-.17-.316-.176Z" transform="translate(-378.882 -162.279)" fill="#e87b1a"/>
        <rect id="Rectangle_732" data-name="Rectangle 732" width="128.868" height="53.025" fill="none"/>
      </g>
    </g>
    <g id="Group_1778" data-name="Group 1778" transform="translate(-0.168 74)">
      <g id="Group_1777" data-name="Group 1777" transform="translate(145.667 -69.517)">
        <g id="Group_1727" data-name="Group 1727" transform="translate(580.743 525.003)">
          <path id="Path_964" data-name="Path 964" d="M277.83,247.494c5.524-.274,11.049-.616,16.59-.342l.941.068c8.107.564,16.248-.564,24.372.222a121.749,121.749,0,0,1-.65,17.48c-2.394,21.5-4,43.083-6.431,64.565-9.287-.051-18.574-.1-27.844,0q-3.284-34.865-6.807-69.7A92.181,92.181,0,0,1,277.83,247.494Z" transform="translate(-277.71 -247.051)" fill="#fff"/>
        </g>
        <g id="Group_1728" data-name="Group 1728" transform="translate(986.76 358.91)">
          <path id="Path_965" data-name="Path 965" d="M515.1,161.245c7.081-3.985,14.264-7.782,21.584-11.305.564,3.951.6,8,1.693,11.87,1.83,4.019,5.866,7.372,4.344,12.229-3.985-.376-8.056-.342-11.938-1.317-5.011-2.1-9.15-5.764-13.341-9.133C516.862,163.007,515.7,161.827,515.1,161.245Z" transform="translate(-515.1 -149.94)" fill="#fffeff"/>
        </g>
        <g id="Group_1729" data-name="Group 1729" transform="translate(740.148 311.517)">
          <path id="Path_966" data-name="Path 966" d="M372.124,123.752c.992-.376,2.959-1.146,3.951-1.522.992.376,2.976,1.146,3.968,1.522.445,1.009,1.317,3.044,1.762,4.053l-1.71,4.1c-2.5.855-5.678,2.1-7.714-.359C369.917,129.431,371.063,126.249,372.124,123.752Z" transform="translate(-370.911 -122.23)" fill="#ff9902"/>
        </g>
        <g id="Group_1731" data-name="Group 1731" transform="translate(848.206 324.207)">
          <g id="Group_1730" data-name="Group 1730">
            <path id="Path_967" data-name="Path 967" d="M434.09,143.162c2.087-5.747,7.3-9.817,11.955-13.512,7.081.667,11.613,8.056,15.41,13.495-3.728,4.772-7.645,9.595-12.725,12.981-2.976.8-5.011-1.984-6.944-3.711C439.084,149.473,435.664,146.907,434.09,143.162Zm3.66-.924a58.761,58.761,0,0,0,9.749,10.023,77.365,77.365,0,0,0,9.133-9.356,60.576,60.576,0,0,0-9.184-9.3C444.078,136.337,440.863,139.245,437.75,142.238Z" transform="translate(-434.09 -129.65)" fill="#e3e6f3"/>
          </g>
        </g>
        <g id="Group_1732" data-name="Group 1732" transform="translate(851.866 328.158)">
          <path id="Path_968" data-name="Path 968" d="M436.23,140.6c3.113-2.993,6.328-5.9,9.7-8.637a60.574,60.574,0,0,1,9.185,9.3,77.37,77.37,0,0,1-9.133,9.356A58.761,58.761,0,0,1,436.23,140.6Z" transform="translate(-436.23 -131.96)" fill="#fefefd"/>
        </g>
        <g id="Group_1733" data-name="Group 1733" transform="translate(1004.992 341.008)">
          <path id="Path_969" data-name="Path 969" d="M534.842,140.973c3.643.205,7.543-3.352,10.741-.171,2.771,2.429,6.482,1.727,9.869,1.488,2.018,4.242,3.8,8.62,6.277,12.639a10.892,10.892,0,0,0-2.993,9.1c-.753.428-2.258,1.266-3.01,1.693-.068,1.18-.222,3.54-.291,4.721-2.018.633-4.019,1.249-6.02,1.881-.5-4.361,3.4-10.176-1.009-13.187-2.463,1.4-3.079,4.43-4.549,6.619-1.864-3.763-3.284-7.714-5.182-11.442-1.488-2.668-4.926-2.069-7.389-2.788a34.543,34.543,0,0,0-5.524-7.047C527.658,141.246,531.438,140.819,534.842,140.973Z" transform="translate(-525.76 -139.473)" fill="#1d2154"/>
        </g>
        <g id="Group_1734" data-name="Group 1734" transform="translate(616.576 350.737)">
          <path id="Path_970" data-name="Path 970" d="M299.156,149.11c.6-4.071,5.507-3.8,8.62-3.917,5.131.171,10.4-.479,15.427.667,3.181.889,2.514,4.874,3.506,7.3-6.277.257-12.537.65-18.779,1.112a42.7,42.7,0,0,0-.718,16.659c-2.172.428-4.361.855-6.534,1.283C297.463,164.982,299.019,156.772,299.156,149.11Z" transform="translate(-298.66 -145.161)" fill="#aebefa"/>
        </g>
        <g id="Group_1735" data-name="Group 1735" transform="translate(966.748 352.479)">
          <path id="Path_971" data-name="Path 971" d="M506.308,157.058c11.049-7.081,24.509-9.065,37.285-10.878.479,2.138,1.009,4.276,1.4,6.431-7.32,3.523-14.5,7.32-21.584,11.305.6.582,1.762,1.762,2.343,2.343a136.461,136.461,0,0,0,4.259,14.179c-2.1-.941-4.173-1.9-6.226-2.856,2.429,3.677,4.721,7.731,3.25,12.28A97.069,97.069,0,0,1,506.6,170.6C503.52,166.892,501.416,160.307,506.308,157.058Z" transform="translate(-503.399 -146.18)" fill="#eca906"/>
        </g>
        <g id="Group_1736" data-name="Group 1736" transform="translate(1006.942 352.479)">
          <path id="Path_972" data-name="Path 972" d="M526.9,146.18c.889.137,2.668.428,3.575.582,2.463.718,5.9.12,7.389,2.788,1.9,3.729,3.318,7.679,5.182,11.442,1.471-2.189,2.087-5.217,4.549-6.619,4.413,3.01.513,8.825,1.009,13.187-.411,3.25.6,6.362,1.437,9.458.068.581.188,1.762.257,2.343a19.045,19.045,0,0,1-15.119.359c-.205-.753-.633-2.258-.838-3.01,1.522-4.857-2.514-8.21-4.344-12.229-1.095-3.865-1.129-7.919-1.693-11.87C527.909,150.456,527.379,148.318,526.9,146.18Z" transform="translate(-526.9 -146.18)" fill="#b4cbfe"/>
        </g>
        <g id="Group_1738" data-name="Group 1738" transform="translate(618.594 358.584)">
          <g id="Group_1737" data-name="Group 1737">
            <path id="Path_973" data-name="Path 973" d="M307.092,151.016c6.243-.462,12.5-.855,18.78-1.112,4.173-.787,9.766,1.437,9.527,6.38-.376,7.423,2.035,15.992-2.172,22.628-7.372,1.71-15.188.735-22.7.479-4.55-.068-4.584-5.678-4.5-9.048-2.069-.479-4.122-.941-6.191-1.385,2.172-.428,4.361-.855,6.533-1.283A42.7,42.7,0,0,1,307.092,151.016Zm3.575,3.746a105.273,105.273,0,0,0-.205,13.546c4.036.308,8.107.821,12.16.308-3.78,1.608-8.107.941-12.075,1.71-1.163,2.275-.616,3.985,1.642,5.1A125.621,125.621,0,0,0,331,175.217a102.543,102.543,0,0,0-.257-20.49c-1.283-.068-3.865-.171-5.165-.239l-.171,2.1.017-1.659A98.9,98.9,0,0,0,310.666,154.762Z" transform="translate(-299.84 -149.749)" fill="#dadff3"/>
          </g>
        </g>
        <g id="Group_1739" data-name="Group 1739" transform="translate(629.087 363.4)">
          <path id="Path_974" data-name="Path 974" d="M306.308,152.762a98.9,98.9,0,0,1,14.76.171l-.017,1.659c-.821,3.882,1.488,9.834-2.788,12.024-4.054.513-8.124,0-12.16-.308A105.278,105.278,0,0,1,306.308,152.762Z" transform="translate(-305.975 -152.565)" fill="#afbef9"/>
        </g>
        <g id="Group_1740" data-name="Group 1740" transform="translate(628.707 363.323)">
          <path id="Path_975" data-name="Path 975" d="M321.38,152.52c1.3.068,3.882.171,5.165.239a102.544,102.544,0,0,1,.257,20.49,125.624,125.624,0,0,1-18.814.205c-2.258-1.112-2.8-2.822-1.642-5.1,3.968-.77,8.3-.1,12.075-1.71,4.276-2.189,1.967-8.141,2.788-12.024Z" transform="translate(-305.753 -152.52)" fill="#fffffd"/>
        </g>
        <path id="Path_976" data-name="Path 976" d="M367.651,190.319c15.136-19.327,36.841-34.549,61.606-37.61,20.028-2.292,40.3,3.814,56.732,15.188,21.55,13.666,33.044,37.268,45.854,58.374,3.027,5.165,6.226,10.313,10.6,14.486-10.792,25.45-21.5,50.951-32.377,76.366-6.174,11.34-2.566,24.629-3.455,36.926,18.061-.034,36.122.051,54.183-.034q-.026,21.422,0,42.861c-23.278.222-46.555-.068-69.85.085-11.066-.137-22.166.445-33.2-.77a41.921,41.921,0,0,0,23.432-19c6.243-10.382,7.8-22.782,7.56-34.686-.068-26.784.085-53.568-.068-80.351-.291-14.572-4.7-30.051-15.975-39.936-11.254-9.8-27.229-11.459-41.51-9.783-11.562,1.283-22.953,6.944-29.52,16.778-7.029,10.04-9.68,22.491-9.612,34.6q-.026,40.2-.017,80.42c-.342,13.067,2.258,26.733,10.3,37.337,4.84,6.807,12.092,11.374,19.72,14.469-21.174,2.052-42.536.086-63.778,1.249-.051-14.213-.017-28.409-.017-42.6,5.952-.051,11.921-.051,17.89-.12.086-8.877,0-17.77.068-26.647-5.986-.034-11.955-.017-17.941.034q-.077-55.9,0-111.77c-3.13,0-6.226,0-9.338.017C355.525,207.815,360.878,198.545,367.651,190.319Z" transform="translate(353.631 210.597)" fill="#e2e3f2"/>
        <path id="Path_977" data-name="Path 977" d="M319.709,209.666c12.349.513,24.509-2,36.755-3.1-11.1,26.51-22.491,52.918-33.54,79.445-1.574,9.869-.257,20.028-.616,30.016q27.092.077,54.2,0c-.034,14.162,0,28.323-.017,42.468-21.482-.445-42.981.1-64.48-.257,2.429-21.482,4.036-43.066,6.431-64.565a121.744,121.744,0,0,0,.65-17.48c-8.124-.787-16.265.342-24.372-.222-1.881-15.188-6.875-29.777-11.664-44.229-1.351-3.8-2.873-7.508-4.447-11.22,2.07-.6,4.122-1.214,6.191-1.847l.564-.171c-.086,5.08-.718,10.159-.291,15.239,1.095,7.252,6.243,13.135,12.229,17.035-.462,7.85-1.676,15.923-.5,23.705,3.164,1.078,2.514-3.181,3.369-5.028.051,1.249.154,3.729.205,4.96,2.138-3.421.12-8.466,2.189-12.143,1.762-3.335,4.378-6.226,5.576-9.834.154-3.985-.428-7.919-.547-11.887,1.984-5.182,6.243-9.167,8.021-14.418C316.408,220.475,315.776,214.352,319.709,209.666Z" transform="translate(303.673 249.196)" fill="#e2e3f2"/>
        <g id="Group_1741" data-name="Group 1741" transform="translate(549.555 479.3)">
          <path id="Path_978" data-name="Path 978" d="M280.111,220.33c2.343,1.881,4.823,3.609,7.3,5.319,4.874,3.506,3.626,10.228,5.542,15.307,1.2,4.909,7,5.678,10.262,8.791,1.9,5.319,2.189,11.083,4.156,16.385-5.542-.274-11.066.068-16.59.342a92.192,92.192,0,0,0,.171,12.3q3.566,34.839,6.807,69.7l-11.1.1c-6.756-10.553-14.4-20.678-19.173-32.342-9.937-23.757-11.117-51.7-.8-75.528C269.883,233.14,275.082,226.727,280.111,220.33Zm-3.557,93.607c-3.609,1.864-2.993,8.432,1.078,9.407,3.814,1.933,9.133-2.925,6.687-6.893C283.36,313,279.358,312.568,276.553,313.937Z" transform="translate(-259.474 -220.33)" fill="#e2e3f2"/>
        </g>
        <path id="Path_979" data-name="Path 979" d="M491.4,223.22c13.854,3.694,26.7,10.416,39.2,17.309,4.737,2.309,8.175,7.132,13.512,8.141,1.437,24.766,4.207,49.429,7.389,74.04.5,4.806,1.18,9.612,1.762,14.418,1.351,0,4.054,0,5.4.017l-.479,1.984c-1.146.188-3.472.6-4.635.8-.889-3.079-1.727-6.174-2.548-9.253-3.489,5.388-7.132,10.69-10.792,15.957-16.282-.342-32.548.086-48.813-.188-.017-14.247.034-28.494-.051-42.741,6.02-.086,12.041-.1,18.078-.154-.017-8.842-.068-17.668,0-26.493-6.072.068-12.126-.017-18.164-.188C491.585,258.983,491.277,241.093,491.4,223.22Z" transform="translate(454.726 261.023)" fill="#e2e3f2"/>
        <path id="Path_980" data-name="Path 980" d="M404.38,205.259c4.549-1.18,10.262-.154,12.93,4.071,3.3,5.045,3.421,11.34,3.8,17.155.051,27.365,0,54.731.034,82.079-.205,6.191-.735,12.913-4.481,18.1-4.242,5.832-14.435,5.388-18.112-.821-3.626-5.559-3.729-12.5-3.848-18.916.137-27.913-.137-55.825.137-83.738C395.042,216.428,396.769,207.295,404.38,205.259Z" transform="translate(386.136 247.941)" fill="#e2e3f2"/>
        <g id="Group_1743" data-name="Group 1743" transform="translate(923.642 368.169)">
          <path id="Path_981" data-name="Path 981" d="M481.675,156.168c4.224-2.548,10.4,1.249,9.646,6.294.325,5.37-7.44,8.244-10.946,4.464C476.954,164.224,477.69,157.964,481.675,156.168Z" transform="translate(-478.196 -155.354)" fill="#aebdfa"/>
        </g>
        <g id="Group_1744" data-name="Group 1744" transform="translate(987.137 372.559)">
          <path id="Path_982" data-name="Path 982" d="M517.287,157.92c4.19,3.369,8.329,7.029,13.341,9.133,3.882.975,7.953.941,11.938,1.317.205.753.633,2.258.838,3.01a19.045,19.045,0,0,0,15.119-.359c1.334.308,2.685.6,4.054.889l-1.043.5.906,1.385-2-.034c.445,21.841.12,43.682.205,65.523-.359,3.113,1.368,5.7,2.771,8.3-.958.171-2.873.5-3.814.667,1.095,1.146,2.206,2.309,3.335,3.472-12.246.547-24.68.77-36.7-2.018-4.4-20.832-1.505-42.348-3.01-63.419a45.257,45.257,0,0,0-4.652-4.755c1.471-4.549-.821-8.6-3.25-12.28,2.052.958,4.122,1.916,6.226,2.856A136.491,136.491,0,0,1,517.287,157.92Z" transform="translate(-515.32 -157.92)" fill="#e69508"/>
        </g>
        <g id="Group_1745" data-name="Group 1745" transform="translate(1030.083 382.876)">
          <path id="Path_983" data-name="Path 983" d="M540.43,164.393c6.79-1.71,13.973,1.8,18.865,6.362,7.389,9.817,8.363,22.611,9.766,34.395.958,16.248,2.206,32.5,2.138,48.779l-5.182.274c-2.959-11.476-5.541-23.055-8.381-34.566-.256,8.706-.393,17.428-.616,26.151-2.412.393-4.823.753-7.218,1.112-.735.1-2.223.291-2.976.393l-1.728.137c-1.129-1.163-2.24-2.326-3.335-3.472.941-.171,2.856-.5,3.814-.667-1.4-2.6-3.13-5.182-2.771-8.3-.085-21.841.24-43.682-.205-65.523l2,.034-.906-1.385,1.043-.5c-1.368-.291-2.719-.582-4.053-.889C540.618,166.155,540.5,164.975,540.43,164.393Z" transform="translate(-540.43 -163.952)" fill="#e27e07"/>
        </g>
        <g id="Group_1746" data-name="Group 1746" transform="translate(701.34 389.057)">
          <path id="Path_984" data-name="Path 984" d="M348.22,169.386c1.83-1.163,3.763-2.343,6.037-1.573a13.47,13.47,0,0,1,.274,6.123l-4.772-.137C349.246,172.327,348.733,170.839,348.22,169.386Z" transform="translate(-348.22 -167.566)" fill="#c6d0f7"/>
        </g>
        <g id="Group_1747" data-name="Group 1747" transform="translate(586.149 392.525)">
          <path id="Path_985" data-name="Path 985" d="M285.693,170.562c1.522-2.685,3.027.906,2.685,2.48.684,10.57,2.856,20.969,5.182,31.282-4.4.325-8.842-.188-12.691-2.5C282.6,191.394,278.082,179.507,285.693,170.562Z" transform="translate(-280.87 -169.594)" fill="#efb104"/>
        </g>
        <g id="Group_1751" data-name="Group 1751" transform="translate(625.805 422.46)">
          <g id="Group_1748" data-name="Group 1748" transform="translate(119.837)">
            <path id="Path_986" data-name="Path 986" d="M383.781,204.445c6.568-9.834,17.958-15.5,29.52-16.778,14.281-1.676,30.256-.017,41.51,9.783,11.271,9.886,15.684,25.364,15.975,39.936.154,26.784,0,53.568.068,80.352.239,11.9-1.317,24.3-7.56,34.686a41.921,41.921,0,0,1-23.432,19,142.108,142.108,0,0,1-33.882.154c-.445-.085-1.351-.239-1.813-.308-7.628-3.1-14.88-7.662-19.72-14.469-8.039-10.6-10.638-24.27-10.3-37.337q.051-40.2.017-80.42C374.1,226.936,376.752,214.485,383.781,204.445ZM419,217.837c-7.611,2.035-9.338,11.168-9.544,17.924-.274,27.913,0,55.825-.137,83.738.12,6.414.222,13.358,3.848,18.916,3.677,6.209,13.871,6.653,18.112.821,3.746-5.182,4.276-11.9,4.481-18.1-.034-27.348.017-54.714-.034-82.079-.376-5.815-.5-12.109-3.8-17.155C429.259,217.683,423.547,216.657,419,217.837Z" transform="translate(-374.123 -187.096)" fill="#01c5c4"/>
          </g>
          <g id="Group_1749" data-name="Group 1749" transform="translate(0 4.317)">
            <path id="Path_987" data-name="Path 987" d="M350.6,189.757c10.074-.274,20.148-.034,30.222-.12,3.113-.017,6.209-.017,9.338-.017q-.026,55.877,0,111.77c5.986-.051,11.955-.068,17.941-.034-.068,8.877.017,17.77-.068,26.647-5.969.068-11.938.068-17.89.12,0,14.2-.034,28.392.017,42.6-10.57.308-21.174.547-31.744-.188.017-14.144-.017-28.306.017-42.468q-27.117.077-54.2,0c.359-9.988-.958-20.148.616-30.016,11.049-26.527,22.44-52.935,33.54-79.445C342.511,209.015,346.547,199.369,350.6,189.757ZM331.873,301.339c8.86,0,17.736.034,26.613-.051-.342-24.92.342-49.856-.342-74.759C349.25,251.414,340.664,276.419,331.873,301.339Z" transform="translate(-304.056 -189.62)" fill="#01c5c4"/>
          </g>
          <g id="Group_1750" data-name="Group 1750" transform="translate(234.187 3.615)">
            <path id="Path_988" data-name="Path 988" d="M477.067,214.489c3.729-8.4,6.79-17.1,11.032-25.279,13,.342,26.014.12,39.03.154-.051,19.327-.017,38.671-.017,58.015-.12,17.873.188,35.763-.137,53.653,6.038.171,12.092.257,18.164.188-.068,8.825-.017,17.651,0,26.493-6.037.051-12.058.068-18.078.154.085,14.247.034,28.494.051,42.741-10.57-.051-21.123-.1-31.692,0q-.051-21.448,0-42.861c-18.061.086-36.122,0-54.183.034.889-12.3-2.719-25.587,3.455-36.926C455.568,265.44,466.275,239.938,477.067,214.489Zm14.812,20.986c-7.611,21.926-15.513,43.75-22.936,65.745,8.808,0,17.616-.034,26.442.034-.017-24.766.137-49.514-.068-74.263C493.538,229.54,492.854,232.584,491.879,235.475Z" transform="translate(-440.981 -189.21)" fill="#01c5c4"/>
          </g>
        </g>
        <g id="Group_1752" data-name="Group 1752" transform="translate(580.797 424.758)">
          <path id="Path_989" data-name="Path 989" d="M278.629,214.163c-2.634-8.86,1.112-17.651,4.464-25.723,3.848,2.309,8.3,2.822,12.691,2.5,1.043,5.713,2.565,11.391,3.062,17.206-.735,2.343-1.556,4.669-2.343,7a15.5,15.5,0,0,1-7.645-5.251,18.448,18.448,0,0,1-6.089,4.6c-.274-2-.53-3.985-.753-5.969C280.9,210.418,279.758,212.282,278.629,214.163Z" transform="translate(-277.741 -188.44)" fill="#eba007"/>
        </g>
        <g id="Group_1753" data-name="Group 1753" transform="translate(552.685 428.88)">
          <path id="Path_990" data-name="Path 990" d="M262.58,190.85c13.255,10.057,21.4,25.125,28,40.056-4.926,2.839-9.954,5.593-15.427,7.183-8.894-8.517-4.532-22.32-12.007-31.453C260.254,201.847,261.331,195.981,262.58,190.85Z" transform="translate(-261.304 -190.85)" fill="#eeb207"/>
        </g>
        <g id="Group_1754" data-name="Group 1754" transform="translate(1075.384 432.181)">
          <path id="Path_991" data-name="Path 991" d="M570.822,192.78c3.626,1.146,5.7,4.755,8,7.525-1.83,1.847-3.626,3.711-5.422,5.576-2.446-1.95-5.1-3.883-6.431-6.807C566.529,196.372,568.752,194.148,570.822,192.78Z" transform="translate(-566.916 -192.78)" fill="#fdfeff"/>
        </g>
        <g id="Group_1755" data-name="Group 1755" transform="translate(581.685 444.461)">
          <path id="Path_992" data-name="Path 992" d="M278.26,205.98c1.129-1.881,2.275-3.746,3.386-5.644.222,1.984.479,3.968.753,5.969a18.448,18.448,0,0,0,6.089-4.6,15.5,15.5,0,0,0,7.645,5.251c.787-2.326,1.608-4.652,2.343-7a55.244,55.244,0,0,1,.889,7.491c-.479,5.388-.393,11.015-2.309,16.146a62.342,62.342,0,0,1-7.953,2.925c.034-1.488.068-2.976.12-4.447-.906.274-2.719.838-3.609,1.129l-.564.171C283.425,217.337,280.586,211.761,278.26,205.98Z" transform="translate(-278.26 -199.96)" fill="#e59008"/>
        </g>
        <g id="Group_1756" data-name="Group 1756" transform="translate(605.031 448.839)">
          <path id="Path_993" data-name="Path 993" d="M300.547,214.407c2.873-4.721,6.4-9.595,11.613-11.887-.051,3.4.325,7.149-1.9,10.023-3.934,4.686-3.3,10.809-4.088,16.47-1.779,5.251-6.038,9.236-8.021,14.418-.325-.65-.975-1.967-1.3-2.617-1.642.907-3.3,1.8-4.943,2.719C293.347,233.477,295.741,223.42,300.547,214.407Z" transform="translate(-291.91 -202.52)" fill="#efb006"/>
        </g>
        <g id="Group_1757" data-name="Group 1757" transform="translate(588.602 451.952)">
          <path id="Path_994" data-name="Path 994" d="M296.493,204.34q.359,5.08.376,10.176c.051,9.15.051,18.284-.188,27.434-.479,3.506-1.3,6.944-2,10.416-5.986-3.9-11.134-9.783-12.229-17.035-.428-5.08.205-10.159.291-15.239.889-.291,2.7-.855,3.609-1.129-.051,1.471-.086,2.959-.12,4.447a62.351,62.351,0,0,0,7.953-2.925C296.1,215.355,296.014,209.728,296.493,204.34Z" transform="translate(-282.304 -204.34)" fill="#e17b08"/>
        </g>
        <g id="Group_1758" data-name="Group 1758" transform="translate(602.978 460.726)">
          <path id="Path_995" data-name="Path 995" d="M290.9,210.872a77.079,77.079,0,0,1,10.5-1.4c-4.806,9.013-7.2,19.07-8.637,29.127-.325,3.113-.547,6.243-.684,9.39-.53-3.233-1.078-6.448-1.368-9.681C290.949,229.156,290.949,220.023,290.9,210.872Z" transform="translate(-290.71 -209.47)" fill="#d8dffa"/>
        </g>
        <g id="Group_1759" data-name="Group 1759" transform="translate(653.621 463.685)">
          <path id="Path_996" data-name="Path 996" d="M320.32,286.01c8.791-24.92,17.377-49.925,26.271-74.81.684,24.9,0,49.839.342,74.759C338.056,286.044,329.18,286.01,320.32,286.01Z" transform="translate(-320.32 -211.2)" fill="#e2e3f2"/>
          <path id="Path_997" data-name="Path 997" d="M480.266,219.783c.975-2.89,1.659-5.935,3.438-8.483.205,24.749.051,49.5.068,74.263-8.825-.068-17.634-.034-26.442-.034C464.753,263.534,472.655,241.71,480.266,219.783Z" transform="translate(-222.997 -211.129)" fill="#e2e3f2"/>
        </g>
        <path id="Union_30" data-name="Union 30" d="M33.916,135.236C32.5,127.506,31.163,119.775,30,112.01c-2.343-12.76-3.9-25.639-6.294-38.363l-.023-.245.023.245c-2.138,14.436-3.866,28.973-5.934,43.442-.7,5.593-1.231,11.22-2.429,16.744-1.35-.017-4.053-.017-5.405-.017C9.356,129.01,8.671,124.2,8.176,119.4,4.995,94.787,2.224,70.124.787,45.358-.274,30.255.223,15.119,0,0,12.024,2.788,24.457,2.565,36.7,2.019l1.727-.138c-1.711.223-3.42.462-5.1.718-2.565.4-5.115.8-7.665,1.231,2.55-.429,5.1-.83,7.665-1.23,1.677-.257,3.386-.5,5.1-.718.752-.1,2.24-.291,2.976-.394C43.8,1.129,46.213.77,48.624.377c1.112,20.062-1.95,40.022-3.882,59.914a47.209,47.209,0,0,1-1.964-14.87,47.209,47.209,0,0,0,1.964,14.87c-1.2,20.147-3.079,40.295-4.995,60.392A37.428,37.428,0,0,1,37.61,107.1a37.428,37.428,0,0,0,2.138,13.583c.359,4.634-.77,9.338-.975,13.99-1.094-.085-3.266-.239-4.361-.325a5.422,5.422,0,0,0,3.746,1.916c.24,2.686.513,5.37.787,8.073-2.856-.017-5.713,0-8.551.085C31.9,141.565,34.652,138.725,33.916,135.236Zm2.429-56.954a34.863,34.863,0,0,1-2.027-11.126A34.863,34.863,0,0,0,36.345,78.282ZM22.782,65.831h0A21.8,21.8,0,0,0,25.4,54.594,21.8,21.8,0,0,1,22.782,65.831ZM24.126,38.8c0-4.739,1.116-9.469,1.112-14.226C25.242,29.329,24.125,34.06,24.126,38.8ZM43.1,31.616c0-1.473-.033-2.941-.119-4.4C43.066,28.675,43.1,30.143,43.1,31.616Zm-.08-6.249c0-3.76-.414-7.579-.416-11.35C42.606,17.788,43.022,21.607,43.019,25.367ZM25.227,23.825q0-.467-.01-.933Q25.222,23.359,25.227,23.825ZM25.1,10.138c0-2.074.016-4.147.059-6.221C25.116,5.991,25.1,8.064,25.1,10.138Z" transform="translate(998.048 464.335)" fill="#0b0243" stroke="rgba(0,0,0,0)" stroke-miterlimit="10" stroke-width="1"/>
        <g id="Group_1765" data-name="Group 1765" transform="translate(566.531 468.936)">
          <path id="Path_1003" data-name="Path 1003" d="M269.4,221.453c5.473-1.591,10.5-4.344,15.427-7.183l.325.787c1.574,3.711,3.1,7.423,4.447,11.22-1.522.838-3.044,1.642-4.6,2.412-1.539.462-3.079.872-4.635,1.266-2.48-1.71-4.96-3.438-7.3-5.319C272.154,223.848,270.306,222.257,269.4,221.453Z" transform="translate(-269.4 -214.27)" fill="#e69407"/>
        </g>
        <g id="Group_1766" data-name="Group 1766" transform="translate(1055.67 472.852)">
          <path id="Path_1004" data-name="Path 1004" d="M555.39,216.834l5.182-.274c.582,4.225,1.95,8.808-.65,12.656C556.262,226.069,555.732,221.349,555.39,216.834Z" transform="translate(-555.39 -216.56)" fill="#c0d1f5"/>
        </g>
        <g id="Group_1767" data-name="Group 1767" transform="translate(577.494 480.942)">
          <path id="Path_1005" data-name="Path 1005" d="M280.445,223.7c1.556-.77,3.079-1.573,4.6-2.412,4.789,14.452,9.783,29.042,11.664,44.229l-.941-.068c-1.967-5.3-2.258-11.066-4.156-16.385-3.267-3.113-9.065-3.882-10.262-8.791-1.916-5.08-.667-11.8-5.542-15.307C277.366,224.574,278.906,224.163,280.445,223.7Z" transform="translate(-275.81 -221.29)" fill="#e17609"/>
        </g>
        <g id="Group_1768" data-name="Group 1768" transform="translate(603.851 487.134)">
          <path id="Path_1006" data-name="Path 1006" d="M292.4,227.629c1.642-.924,3.3-1.813,4.943-2.719.325.65.975,1.967,1.3,2.617.12,3.968.7,7.9.547,11.887-1.2,3.609-3.814,6.5-5.576,9.834-2.069,3.677-.051,8.723-2.189,12.143-.051-1.231-.154-3.711-.205-4.96.479-6.465.582-12.947.5-19.412C291.853,233.872,292.075,230.742,292.4,227.629Z" transform="translate(-291.22 -224.91)" fill="#e89109"/>
        </g>
        <g id="Group_1769" data-name="Group 1769" transform="translate(599.98 489.562)">
          <path id="Path_1007" data-name="Path 1007" d="M289.954,236.746c.7-3.472,1.522-6.91,2-10.416.291,3.233.838,6.448,1.368,9.681.086,6.465-.017,12.947-.5,19.412-.855,1.847-.205,6.106-3.369,5.028C288.278,252.669,289.492,244.6,289.954,236.746Z" transform="translate(-288.957 -226.33)" fill="#de9c6a"/>
        </g>
        <g id="Group_1771" data-name="Group 1771" transform="translate(1012.911 537.982)">
          <path id="Path_1009" data-name="Path 1009" d="M533.3,298.082c2.07-14.469,3.8-29.007,5.935-43.442,2.395,12.725,3.951,25.6,6.294,38.363,1.163,7.765,2.5,15.5,3.917,23.226.735,3.489-2.018,6.328-3.523,9.184a120.648,120.648,0,0,1-13.614-1.043c-.633-2.531-1.317-5.046-1.916-7.56l.479-1.984C532.066,309.3,532.6,303.675,533.3,298.082Z" transform="translate(-530.39 -254.64)" fill="#fefefe"/>
        </g>
        <g id="Group_1773" data-name="Group 1773" transform="translate(564.258 572.183)">
          <path id="Path_1011" data-name="Path 1011" d="M270.447,275.361c2.8-1.368,6.807-.941,7.765,2.514,2.446,3.968-2.873,8.825-6.687,6.893C267.454,283.793,266.838,277.225,270.447,275.361Z" transform="translate(-268.071 -274.636)" fill="#fd9803"/>
        </g>
        <g id="Group_1774" data-name="Group 1774" transform="translate(994.936 591.703)">
          <path id="Path_1012" data-name="Path 1012" d="M519.88,302.007c3.66-5.268,7.3-10.57,10.792-15.957.821,3.079,1.659,6.174,2.548,9.253a67.455,67.455,0,0,1-8.859,6.876C523.249,302.144,520.992,302.059,519.88,302.007Z" transform="translate(-519.88 -286.05)" fill="#fefff6"/>
        </g>
        <g id="Group_1775" data-name="Group 1775" transform="translate(998.151 600.153)">
          <path id="Path_1013" data-name="Path 1013" d="M531.885,291.794c1.163-.205,3.489-.616,4.635-.8-.052,2.839,0,5.678.171,8.535-4.977.085-9.954.222-14.931-.1l1.266-.753A67.457,67.457,0,0,0,531.885,291.794Z" transform="translate(-521.76 -290.99)" fill="#19025e"/>
        </g>
        <g id="Group_1776" data-name="Group 1776" transform="translate(542.501 606.635)">
          <path id="Path_1014" data-name="Path 1014" d="M424.759,296.029c21.242-1.163,42.6.8,63.778-1.249.462.068,1.368.222,1.813.308a142.11,142.11,0,0,0,33.882-.154c11.032,1.214,22.132.633,33.2.77,23.295-.154,46.572.137,69.85-.086,10.57-.1,21.123-.051,31.692,0,16.265.274,32.531-.154,48.813.188,1.112.051,3.369.137,4.481.171L711,296.73c-2.412,1.591-5.473.906-8.175,1.112-91.212-.359-182.407.1-273.619-.1a386.3,386.3,0,0,0-41.031.017c-44.281-.017-88.561.257-132.824-.291,1.676-2.719,5.319-1.351,7.919-1.762q13.161.128,26.322-.017l11.1-.1c9.27-.1,18.557-.051,27.844,0,21.5.359,43-.188,64.48.257C403.585,296.576,414.189,296.336,424.759,296.029Z" transform="translate(-255.35 -294.78)" fill="#c3c1c8"/>
        </g>
      </g>
      <text id="Your_results_are_not_out_yet." data-name="Your results are not out yet." transform="translate(711 626)" fill="#3d4251" font-size="41" font-family="Roboto-Regular, Roboto"><tspan x="0" y="0">Your results are not out yet.</tspan></text>
      <g id="Button" transform="translate(901 654)">
        <rect id="Rectangle_1" data-name="Rectangle 1" width="145" height="37" rx="3" fill="#f57f25"/>
        <text id="GO_HOME" data-name="GO HOME" transform="translate(43.22 23)" fill="#fff" font-size="14" font-family="FiraSans-Regular, Fira Sans"><tspan x="0" y="0">GO HOME</tspan></text>
      </g>
    </g>
    <g id="Component_6_9" data-name="Component 6 – 9" transform="translate(0 -1)">
      <g id="Base-3" data-name="Base">
        <g transform="matrix(1, 0, 0, 1, 0, 1)" filter="url(#Base)">
          <path id="Base-4" data-name="Base" d="M0,0H1920a0,0,0,0,1,0,0V40a30,30,0,0,1-30,30H30A30,30,0,0,1,0,40V0A0,0,0,0,1,0,0Z" transform="translate(0 -1)" fill="#fff" opacity="0.9"/>
        </g>
      </g>
      <text id="HOW_IT_WORKS" data-name="HOW IT WORKS" transform="translate(548 40)" fill="#3d4251" font-size="16" font-family="FiraSans-Medium, Fira Sans" font-weight="500"><tspan x="0" y="0">HOW IT WORKS</tspan></text>
      <text id="ABOUT" transform="translate(462 40)" fill="#3d4251" font-size="16" font-family="FiraSans-Medium, Fira Sans" font-weight="500"><tspan x="0" y="0">ABOUT</tspan></text>
      <text id="CONTACT" transform="translate(683 40)" fill="#3d4251" font-size="16" font-family="FiraSans-Medium, Fira Sans" font-weight="500"><tspan x="0" y="0">CONTACT</tspan></text>
      <g id="Group_1227" data-name="Group 1227" transform="translate(-0.252)">
        <g id="Group_1216" data-name="Group 1216" transform="translate(332.896 7)">
          <path id="Path_428" data-name="Path 428" d="M901.106,103.981c-8.669,2.429-29.849,33.876-29.849,33.876l-6.042-9.327,4.051.39,1.751,2.907s14.928-24.147,30.088-27.846Z" transform="translate(-864.02 -103.981)" fill="url(#linear-gradient-3)"/>
          <path id="Path_429" data-name="Path 429" d="M865.563,366.654,876.736,390h-5.158l-8.986-16.143L860.277,390h-4.926l4.471-23.3,2.785,4.24Z" transform="translate(-855.352 -334.8)" fill="url(#linear-gradient-4)"/>
        </g>
        <g id="Group_1217" data-name="Group 1217" transform="translate(351.635 28.485)">
          <path id="Path_430" data-name="Path 430" d="M1020.9,325.544l-1.322,1.983a6.573,6.573,0,0,0-3.516-1.137,2.721,2.721,0,0,0-1.56.383,1.182,1.182,0,0,0-.555,1.018,1.285,1.285,0,0,0,.238.793,2.165,2.165,0,0,0,.859.595,14.327,14.327,0,0,0,1.837.621,8.069,8.069,0,0,1,3.371,1.613,3.61,3.61,0,0,1,1.1,2.8,3.758,3.758,0,0,1-1.692,3.265,7.189,7.189,0,0,1-4.2,1.177,8.887,8.887,0,0,1-3.133-.529,7.592,7.592,0,0,1-2.446-1.454l1.692-1.9a6.241,6.241,0,0,0,3.807,1.375,3.221,3.221,0,0,0,1.811-.449,1.415,1.415,0,0,0,.674-1.243,1.65,1.65,0,0,0-.251-.965,2.07,2.07,0,0,0-.9-.635,18.894,18.894,0,0,0-2.022-.674,6.751,6.751,0,0,1-3.146-1.626,3.606,3.606,0,0,1-1-2.6,3.46,3.46,0,0,1,.674-2.089,4.477,4.477,0,0,1,1.9-1.454,7.073,7.073,0,0,1,2.816-.529A7.867,7.867,0,0,1,1020.9,325.544Z" transform="translate(-1009.871 -318.696)" fill="#4f4f57"/>
          <path id="Path_431" data-name="Path 431" d="M1137.526,288.245a4.4,4.4,0,0,1,1.057,3.12v10.126H1135.2v-9.6a2.685,2.685,0,0,0-.436-1.745,1.607,1.607,0,0,0-1.282-.5,2.525,2.525,0,0,0-1.56.542,6.181,6.181,0,0,0-1.375,1.547v9.756h-3.384V281.927l3.384-.344v7.588a5.107,5.107,0,0,1,4.072-2.062A3.779,3.779,0,0,1,1137.526,288.245Z" transform="translate(-1112.938 -281.53)" fill="#4f4f57"/>
          <path id="Path_432" data-name="Path 432" d="M1256.369,335.762a1.6,1.6,0,0,0,.806.595l-.714,2.247a4.325,4.325,0,0,1-1.943-.582,2.971,2.971,0,0,1-1.15-1.454,4.482,4.482,0,0,1-1.785,1.573,5.446,5.446,0,0,1-2.393.516,4.522,4.522,0,0,1-3.3-1.19,4.169,4.169,0,0,1-1.216-3.12,4.036,4.036,0,0,1,1.652-3.477,7.926,7.926,0,0,1,4.719-1.2h1.745v-.793a2.413,2.413,0,0,0-.621-1.89,3.006,3.006,0,0,0-2-.542,11.8,11.8,0,0,0-3.7.74l-.793-2.3a14.129,14.129,0,0,1,5.076-1q5.367,0,5.367,4.812v5.869A2.24,2.24,0,0,0,1256.369,335.762Zm-3.583-1.282v-2.829h-1.4q-3.279,0-3.278,2.432a2.242,2.242,0,0,0,.5,1.56,1.9,1.9,0,0,0,1.481.555A2.994,2.994,0,0,0,1252.787,334.48Z" transform="translate(-1216.196 -318.696)" fill="#4f4f57"/>
          <path id="Path_433" data-name="Path 433" d="M1376.245,281.147v19.961h-3.384V281.517Zm8.381,5.975-4.653,6.16,5.1,7.826h-3.887l-4.812-7.641,4.68-6.345Z" transform="translate(-1328.841 -281.147)" fill="#4f4f57"/>
        </g>
        <path id="Path_434" data-name="Path 434" d="M473.631,325.684a9.822,9.822,0,0,1,1.269,5.42,10.635,10.635,0,0,1-.648,3.847,5.849,5.849,0,0,1-1.9,2.631,4.784,4.784,0,0,1-2.974.952A4.362,4.362,0,0,1,465.858,337v6.53l-3.384.37v-19.75h2.961l.185,1.719a5.482,5.482,0,0,1,1.877-1.586,4.9,4.9,0,0,1,2.221-.529A4.356,4.356,0,0,1,473.631,325.684Zm-2.274,5.446a7.734,7.734,0,0,0-.661-3.7,2.152,2.152,0,0,0-1.983-1.137,2.724,2.724,0,0,0-1.586.516,4.5,4.5,0,0,0-1.269,1.388v6.293a2.97,2.97,0,0,0,2.565,1.454Q471.358,335.942,471.357,331.13Z" transform="translate(-177.222 -290.102)" fill="#4f4f57"/>
        <path id="Path_435" data-name="Path 435" d="M592.773,335.818a1.606,1.606,0,0,0,.806.595l-.714,2.247a4.327,4.327,0,0,1-1.943-.582,2.972,2.972,0,0,1-1.15-1.454,4.482,4.482,0,0,1-1.785,1.573,5.446,5.446,0,0,1-2.393.515,4.522,4.522,0,0,1-3.3-1.19,4.168,4.168,0,0,1-1.216-3.12,4.036,4.036,0,0,1,1.652-3.477,7.927,7.927,0,0,1,4.719-1.2h1.745v-.793a2.413,2.413,0,0,0-.621-1.89,3,3,0,0,0-2-.542,11.8,11.8,0,0,0-3.7.74l-.793-2.3a14.128,14.128,0,0,1,5.076-1q5.367,0,5.367,4.812v5.869A2.242,2.242,0,0,0,592.773,335.818Zm-3.582-1.282v-2.829h-1.4q-3.279,0-3.278,2.432a2.242,2.242,0,0,0,.5,1.56,1.9,1.9,0,0,0,1.481.555A2.994,2.994,0,0,0,589.191,334.536Z" transform="translate(-281.439 -290.26)" fill="#4f4f57"/>
        <path id="Path_436" data-name="Path 436" d="M717.566,327.607l-.582,3.278a5.112,5.112,0,0,0-1.242-.159,2.377,2.377,0,0,0-1.957.886,6.809,6.809,0,0,0-1.137,2.71v7.456h-3.384V327.792H712.2l.317,2.75a5.029,5.029,0,0,1,1.454-2.313,3.3,3.3,0,0,1,2.194-.806A5.006,5.006,0,0,1,717.566,327.607Z" transform="translate(-394.084 -293.325)" fill="#4f4f57"/>
        <g id="Group_1218" data-name="Group 1218" transform="translate(324.08 25.073)">
          <path id="Path_437" data-name="Path 437" d="M795.45,272.641a1.994,1.994,0,0,1,.595,1.467,1.95,1.95,0,0,1-.595,1.454,2.118,2.118,0,0,1-1.547.582,2.083,2.083,0,0,1-1.52-.582,1.95,1.95,0,0,1-.595-1.454,1.994,1.994,0,0,1,.595-1.467,2.058,2.058,0,0,1,1.52-.595A2.093,2.093,0,0,1,795.45,272.641Zm.172,6.491v13.986h-3.384V279.132Z" transform="translate(-790.68 -269.738)" fill="#4f4f57"/>
          <path id="Path_438" data-name="Path 438" d="M794.249,268.089V269.1a4.359,4.359,0,0,1,3.671,0v-1.029a4.591,4.591,0,0,0-1.85-.491A4.286,4.286,0,0,0,794.249,268.089Z" transform="translate(-792.842 -265.817)" fill="#e87b1a"/>
          <path id="Path_439" data-name="Path 439" d="M788.224,254.35l-2.409-1.336-3.165,1.812,1.405.639.006-.176a3.975,3.975,0,0,1,1.817-.459,4.26,4.26,0,0,1,1.846.447l.006.323.869-.47v1.435h-.22v.51l.292-.2.324.2v-.51h-.238v-1.52h0l.365-.2-.365-.2Z" transform="translate(-782.65 -253.014)" fill="#e87b1a"/>
        </g>
      </g>
    </g>
  </g>
</svg>
