<svg xmlns="http://www.w3.org/2000/svg" xmlns:xlink="http://www.w3.org/1999/xlink" width="1920" height="1080" viewBox="0 0 1920 1080">
  <defs>
    <clipPath id="clip-Q_A_Submit">
      <rect width="1920" height="1080"/>
    </clipPath>
  </defs>
  <g id="Q_A_Submit" data-name="Q&amp;A – Submit" clip-path="url(#clip-Q_A_Submit)">
    <rect id="Rectangle_731" data-name="Rectangle 731" width="426" height="205" rx="10" transform="translate(751 438)" fill="rgba(61,66,81,0.85)"/>
    <g id="Group_1646" data-name="Group 1646" transform="translate(-7 -23)">
      <g id="Group_341" data-name="Group 341" transform="translate(834 576)">
        <g id="Rectangle_1" data-name="Rectangle 1" fill="none" stroke="#fff" stroke-width="1">
          <rect width="119" height="37" rx="3" stroke="none"/>
          <rect x="0.5" y="0.5" width="118" height="36" rx="2.5" fill="none"/>
        </g>
        <text id="Yes" transform="translate(49 23)" fill="#fff" font-size="14" font-family="FiraSans-Regular, Fira Sans"><tspan x="0" y="0">Yes</tspan></text>
      </g>
      <g id="Group_1645" data-name="Group 1645">
        <text id="Are_you_sure_you_wanna_Submit_" data-name="Are you sure you wanna Submit ?" transform="translate(821 533)" fill="#fff" font-size="20" font-family="Roboto-Regular, Roboto"><tspan x="0" y="0">Are you sure you wanna Submit ?</tspan></text>
        <g id="Group_391" data-name="Group 391" transform="translate(976 576)">
          <rect id="Rectangle_1-2" data-name="Rectangle 1" width="119" height="37" rx="3" fill="#f57f25"/>
          <text id="No" transform="translate(51 23)" fill="#fff" font-size="14" font-family="FiraSans-Regular, Fira Sans"><tspan x="0" y="0">No</tspan></text>
        </g>
      </g>
    </g>
    <g id="Group_392" data-name="Group 392" transform="translate(-98 185)">
      <path id="Union_3" data-name="Union 3" d="M9.778,11.556l-8,8L0,17.778l8-8-8-8L1.777,0l8,8,8-8,1.779,1.777-8,8,8,8-1.779,1.779Z" transform="translate(1236 272)" fill="#fff"/>
    </g>
  </g>
</svg>
