<svg xmlns="http://www.w3.org/2000/svg" xmlns:xlink="http://www.w3.org/1999/xlink" width="1920" height="1080" viewBox="0 0 1920 1080">
  <defs>
    <linearGradient id="linear-gradient" x1="0.934" y1="0.296" x2="0.048" y2="0.787" gradientUnits="objectBoundingBox">
      <stop offset="0.32" stop-color="#f37335"/>
      <stop offset="0.36" stop-color="#f67c30"/>
      <stop offset="0.48" stop-color="#fb8f24"/>
      <stop offset="0.6" stop-color="#fe9a1d"/>
      <stop offset="0.73" stop-color="#ff9e1b"/>
    </linearGradient>
    <linearGradient id="linear-gradient-2" x1="0.51" y1="1.03" x2="0.21" y2="0.123" xlink:href="#linear-gradient"/>
    <filter id="Base" x="-15" y="-13" width="1950" height="100" filterUnits="userSpaceOnUse">
      <feOffset dy="3" input="SourceAlpha"/>
      <feGaussianBlur stdDeviation="5" result="blur"/>
      <feFlood flood-opacity="0.161"/>
      <feComposite operator="in" in2="blur"/>
      <feComposite in="SourceGraphic"/>
    </filter>
    <linearGradient id="linear-gradient-3" x1="0.935" y1="0.296" x2="0.048" y2="0.787" gradientUnits="objectBoundingBox">
      <stop offset="0.316" stop-color="#f37335"/>
      <stop offset="0.36" stop-color="#f57c2f"/>
      <stop offset="0.479" stop-color="#fa8e24"/>
      <stop offset="0.601" stop-color="#fd9a1d"/>
      <stop offset="0.731" stop-color="#ff9e1b"/>
    </linearGradient>
    <linearGradient id="linear-gradient-4" x1="0.51" y1="1.03" x2="0.21" y2="0.123" xlink:href="#linear-gradient-3"/>
    <clipPath id="clip-Student_Change_Password">
      <rect width="1920" height="1080"/>
    </clipPath>
  </defs>
  <g id="Student_Change_Password" data-name="Student Change Password" clip-path="url(#clip-Student_Change_Password)">
    <rect width="1920" height="1080" fill="#fff"/>
    <text id="Change_Password" data-name="Change Password" transform="translate(585 158)" fill="#3d4251" font-size="41" font-family="FiraSans-Medium, Fira Sans" font-weight="500"><tspan x="0" y="0">Change Password</tspan></text>
    <g id="Group_390" data-name="Group 390">
      <g id="Group_339" data-name="Group 339" transform="translate(585 475)">
        <g id="Password">
          <g id="Rectangle_600" data-name="Rectangle 600" transform="translate(0 24)" fill="#fff" stroke="#f57f25" stroke-width="2">
            <rect width="360" height="50" rx="10" stroke="none"/>
            <rect x="1" y="1" width="358" height="48" rx="9" fill="none"/>
          </g>
          <text id="_" data-name="●●●●●●●●●●●" transform="translate(20 54)" fill="#3d4251" font-size="14" font-family="SegoeUI, Segoe UI"><tspan x="0" y="0">●●●●●●●●●●●</tspan></text>
          <text id="Confirm_Old_Password" data-name="Confirm Old Password" transform="translate(0 13)" fill="#3d4251" font-size="14" font-family="FiraSans-Bold, Fira Sans" font-weight="700"><tspan x="0" y="0">Confirm Old Password</tspan></text>
        </g>
      </g>
      <g id="Group_378" data-name="Group 378" transform="translate(585 569)">
        <g id="Password-2" data-name="Password">
          <g id="Rectangle_600-2" data-name="Rectangle 600" transform="translate(0 24)" fill="#fff" stroke="#4cb2be" stroke-width="2">
            <rect width="360" height="51" rx="10" stroke="none"/>
            <rect x="1" y="1" width="358" height="49" rx="9" fill="none"/>
          </g>
          <text id="_2" data-name="●●●●●●●" transform="translate(20 55)" fill="#3d4251" font-size="14" font-family="SegoeUI, Segoe UI"><tspan x="0" y="0">●●●●●●●</tspan></text>
          <text id="New_Password" data-name="New Password" transform="translate(0 13)" fill="#3d4251" font-size="14" font-family="FiraSans-Bold, Fira Sans" font-weight="700"><tspan x="0" y="0">New Password</tspan></text>
        </g>
        <g id="Group_354" data-name="Group 354" transform="translate(324 40.689)">
          <rect id="Rectangle_460" data-name="Rectangle 460" width="16" height="16" transform="translate(0 0.311)" fill="none"/>
          <path id="Checkbox" d="M6.345,11.034,0,4.69,1.287,3.4,6.345,8.368,14.713,0,16,1.287Z" transform="translate(0 2)" fill="#4cb2be"/>
        </g>
      </g>
      <g id="Group_340" data-name="Group 340" transform="translate(585 664)">
        <g id="Password-3" data-name="Password">
          <g id="Rectangle_600-3" data-name="Rectangle 600" transform="translate(0 24)" fill="#fff" stroke="#4cb2be" stroke-width="2">
            <rect width="360" height="50" rx="10" stroke="none"/>
            <rect x="1" y="1" width="358" height="48" rx="9" fill="none"/>
          </g>
          <text id="_3" data-name="●●●●●●●" transform="translate(20 54)" fill="#3d4251" font-size="14" font-family="SegoeUI, Segoe UI"><tspan x="0" y="0">●●●●●●●</tspan></text>
          <text id="Confirm_Password" data-name="Confirm Password" transform="translate(0 13)" fill="#3d4251" font-size="14" font-family="FiraSans-Bold, Fira Sans" font-weight="700"><tspan x="0" y="0">Confirm Password</tspan></text>
          <path id="Union_3" data-name="Union 3" d="M7.778,9.192,1.414,15.557,0,14.142,6.364,7.778,0,1.414,1.414,0,7.778,6.364,14.142,0l1.415,1.414L9.192,7.778l6.364,6.364-1.415,1.415Z" transform="translate(324 41)" fill="#f57f25"/>
        </g>
        <path id="Union_25" data-name="Union 25" d="M15.8,50a10,10,0,0,1-10-10V30.589L0,25.241l5.8-5.349V10a10,10,0,0,1,10-10H194.35a10,10,0,0,1,10,10V40a10,10,0,0,1-10,10Z" transform="translate(360 24)" fill="#f57f25"/>
        <text id="Sorry_password_didn_t_match" data-name="Sorry, password didn&apos;t match" transform="translate(373 54)" fill="#fff" font-size="14" font-family="FiraSans-Regular, Fira Sans"><tspan x="0" y="0">Sorry, password didn&apos;t match</tspan></text>
      </g>
      <g id="Group_341" data-name="Group 341" transform="translate(585 758)">
        <rect id="Rectangle_1" data-name="Rectangle 1" width="119" height="37" rx="3" fill="#f57f25"/>
        <text id="SAVE" transform="translate(44 23)" fill="#fff" font-size="14" font-family="FiraSans-Regular, Fira Sans"><tspan x="0" y="0">SAVE</tspan></text>
      </g>
    </g>
    <g id="Group_387" data-name="Group 387" transform="translate(-325 47)">
      <g id="Path_227" data-name="Path 227" transform="translate(910 185)" fill="#fff">
        <path d="M 89.5 178.5 C 83.46113586425781 178.5 77.42620086669922 177.8916320800781 71.5628662109375 176.6918182373047 C 65.84879302978516 175.5225677490234 60.22824859619141 173.7778472900391 54.85734176635742 171.5061340332031 C 49.58383941650391 169.275634765625 44.49750137329102 166.5148620605469 39.7396125793457 163.3005065917969 C 35.02679443359375 160.1165924072266 30.59504508972168 156.4600677490234 26.5674991607666 152.4324951171875 C 22.53993225097656 148.4049530029297 18.88343238830566 143.9732208251953 15.69950008392334 139.2604064941406 C 12.48513603210449 134.5025177001953 9.724363327026367 129.4161834716797 7.493863582611084 124.1426620483398 C 5.222158908843994 118.7717742919922 3.477431774139404 113.1512298583984 2.308181762695313 107.4371337890625 C 1.108363628387451 101.5737991333008 0.5 95.53886413574219 0.5 89.5 C 0.5 83.46113586425781 1.108363628387451 77.42620086669922 2.308181762695313 71.5628662109375 C 3.477431774139404 65.84879302978516 5.222158908843994 60.22824859619141 7.493863582611084 54.85734176635742 C 9.724363327026367 49.58383941650391 12.48513603210449 44.49750137329102 15.69950008392334 39.7396125793457 C 18.88343238830566 35.02679443359375 22.53993225097656 30.59504508972168 26.5674991607666 26.5674991607666 C 30.59504508972168 22.53993225097656 35.02679443359375 18.88343238830566 39.7396125793457 15.69950008392334 C 44.49750137329102 12.48513603210449 49.58383941650391 9.724363327026367 54.85734176635742 7.493863582611084 C 60.22824859619141 5.222158908843994 65.84879302978516 3.477431774139404 71.5628662109375 2.308181762695313 C 77.42620086669922 1.108363628387451 83.46113586425781 0.5 89.5 0.5 C 100.4694290161133 0.5 111.1769104003906 2.474159002304077 121.3250427246094 6.367659091949463 C 131.1433563232422 10.13463592529297 140.1802520751953 15.59168148040771 148.1846618652344 22.58718109130859 C 152.8130493164063 26.6320686340332 157.0359039306641 31.18224906921387 160.7359619140625 36.11136245727539 C 164.4658813476563 41.08027267456055 167.6798706054688 46.45515823364258 170.2886352539063 52.0866584777832 C 172.9473114013672 57.82597732543945 174.9927215576172 63.86634063720703 176.3680267333984 70.03995513916016 C 177.7826995849609 76.39031982421875 178.5 82.93761444091797 178.5 89.5 C 178.5 99.07511138916016 176.9647064208984 108.5660705566406 173.9367218017578 117.7092742919922 C 171.052001953125 126.4209976196289 166.8205261230469 134.6163482666016 161.3598175048828 142.0676422119141 C 155.9623565673828 149.4326324462891 149.4853668212891 155.9080505371094 142.1087341308594 161.3140411376953 C 134.64013671875 166.7874145507813 126.4154739379883 171.0404510498047 117.6631851196289 173.9550476074219 C 108.6068878173828 176.9708709716797 99.13140869140625 178.5 89.5 178.5 Z" stroke="none"/>
        <path d="M 89.5 1 C 83.49472808837891 1 77.49352264404297 1.604934692382813 71.66309356689453 2.798019409179688 C 65.98136138916016 3.960678100585938 60.39261627197266 5.695526123046875 55.05211639404297 7.954360961914063 C 49.80833435058594 10.17230224609375 44.75064086914063 12.91752624511719 40.01950073242188 16.11381530761719 C 35.33303833007813 19.2799072265625 30.92608642578125 22.91600036621094 26.92105102539063 26.92105102539063 C 22.91600036621094 30.92608642578125 19.2799072265625 35.33303833007813 16.11381530761719 40.01950073242188 C 12.91752624511719 44.75064086914063 10.17230224609375 49.80833435058594 7.954360961914063 55.05211639404297 C 5.695526123046875 60.39261627197266 3.960678100585938 65.98136138916016 2.798019409179688 71.66309356689453 C 1.604934692382813 77.49352264404297 1 83.49472808837891 1 89.5 C 1 95.50527191162109 1.604934692382813 101.5064544677734 2.798019409179688 107.3368835449219 C 3.960678100585938 113.0186386108398 5.695526123046875 118.6073913574219 7.954360961914063 123.9478912353516 C 10.17230224609375 129.191650390625 12.91752624511719 134.2493591308594 16.11381530761719 138.9804992675781 C 19.2799072265625 143.6669311523438 22.91600036621094 148.0738830566406 26.92105102539063 152.0789489746094 C 30.92608642578125 156.0839996337891 35.33303833007813 159.7200927734375 40.01950073242188 162.8861846923828 C 44.75064086914063 166.0824737548828 49.80833435058594 168.8276977539063 55.05211639404297 171.0456390380859 C 60.39261627197266 173.3044738769531 65.98136138916016 175.0393218994141 71.66309356689453 176.2019805908203 C 77.49352264404297 177.3950653076172 83.49472808837891 178 89.5 178 C 99.07761383056641 178 108.4999313354492 176.4794769287109 117.5052261352539 173.4806365966797 C 126.2081604003906 170.5825042724609 134.3865509033203 166.3533935546875 141.8131866455078 160.9107513427734 C 149.1485443115234 155.5349731445313 155.5892944335938 149.0958251953125 160.9565277099609 141.7720642089844 C 166.3862915039063 134.3629455566406 170.5937805175781 126.2141799926758 173.4620666503906 117.5520629882813 C 176.4732208251953 108.4597015380859 178 99.02163696289063 178 89.5 C 178 82.97411346435547 177.2867279052734 76.46340942382813 175.8799743652344 70.148681640625 C 174.512451171875 64.00993347167969 172.4786071777344 58.00370788574219 169.8349304199219 52.29684448242188 C 167.2408905029297 46.69706726074219 164.0449981689453 41.35247802734375 160.3360748291016 36.41152954101563 C 156.6568603515625 31.51020812988281 152.4578399658203 26.98570251464844 147.8555908203125 22.96365356445313 C 139.8956146240234 16.00697326660156 130.9092102050781 10.58033752441406 121.1459350585938 6.83447265625 C 111.0552062988281 2.962997436523438 100.4079742431641 1 89.5 1 M 89.5 0 C 112.0397262573242 0 132.6334228515625 8.332015991210938 148.5136566162109 22.21070861816406 C 167.1415863037109 38.49018859863281 179 62.61025238037109 179 89.5 C 179 99.33647918701172 177.4131622314453 108.8023376464844 174.4113616943359 117.866455078125 C 162.6812896728516 153.2907257080078 129.093017578125 179 89.5 179 C 40.07049560546875 179 0 138.9294738769531 0 89.5 C 0 40.07049560546875 40.07049560546875 0 89.5 0 Z" stroke="none" fill="#4cb2be"/>
      </g>
      <g id="Group_373" data-name="Group 373" transform="translate(332 -3)">
        <circle id="Ellipse_2" data-name="Ellipse 2" cx="83" cy="83" r="83" transform="translate(585 195)" fill="#f2f8ff"/>
        <g id="Group_356" data-name="Group 356" transform="translate(608.088 220.004)">
          <circle id="Ellipse_3" data-name="Ellipse 3" cx="29.952" cy="29.952" r="29.952" transform="translate(29.96 0)" fill="#f57f25"/>
          <path id="Path_210" data-name="Path 210" d="M781.605,561.707c.425,6.372-31.014,32.289-60.329,31.864-28.154-.408-58.63-25.066-59.48-31.864-.685-5.481,31.376-23.337,59.48-25.067C748.892,534.941,781.461,559.545,781.605,561.707Z" transform="translate(-661.786 -471.213)" fill="#f57f25"/>
        </g>
      </g>
    </g>
    <g id="Group_399" data-name="Group 399">
      <rect id="Rectangle_719" data-name="Rectangle 719" width="265" height="942" transform="translate(275 69)" fill="#3d4251"/>
      <rect id="Rectangle_720" data-name="Rectangle 720" width="265" height="60" transform="translate(275 663)" fill="#666f88"/>
      <text id="Change_password-2" data-name="Change password" transform="translate(297 700)" fill="#fff" font-size="20" font-family="Roboto-Regular, Roboto"><tspan x="0" y="0">Change password</tspan></text>
      <text id="Marksheets" transform="translate(297 760)" fill="#fff" font-size="20" font-family="Roboto-Regular, Roboto"><tspan x="0" y="0">Marksheets</tspan></text>
      <text id="Logout" transform="translate(297 820)" fill="#fff" font-size="20" font-family="Roboto-Regular, Roboto"><tspan x="0" y="0">Logout</tspan></text>
      <text id="Exams" transform="translate(297 340)" fill="#fff" font-size="20" font-family="Roboto-Regular, Roboto"><tspan x="0" y="0">Exams</tspan></text>
      <text id="Internal_Assessment_1" data-name="Internal Assessment 1" transform="translate(318 400)" fill="#fff" font-size="20" font-family="Roboto-Regular, Roboto"><tspan x="0" y="0">Internal Assessment 1</tspan></text>
      <text id="Internal_Assessment_2" data-name="Internal Assessment 2" transform="translate(318 460)" fill="#fff" font-size="20" font-family="Roboto-Regular, Roboto"><tspan x="0" y="0">Internal Assessment 2</tspan></text>
      <text id="Internal_Assessment_3" data-name="Internal Assessment 3" transform="translate(318 520)" fill="#fff" font-size="20" font-family="Roboto-Regular, Roboto"><tspan x="0" y="0">Internal Assessment 3</tspan></text>
      <text id="Semester_End_Exam" data-name="Semester End Exam" transform="translate(318 580)" fill="#fff" font-size="20" font-family="Roboto-Regular, Roboto"><tspan x="0" y="0">Semester End Exam</tspan></text>
      <text id="Others" transform="translate(318 640)" fill="#fff" font-size="20" font-family="Roboto-Regular, Roboto"><tspan x="0" y="0">Others</tspan></text>
      <g id="Group_376" data-name="Group 376" transform="translate(-255.443 -211.902)">
        <circle id="Ellipse_2-2" data-name="Ellipse 2" cx="44.291" cy="44.291" r="44.291" transform="translate(607.443 323.902)" fill="#fff"/>
        <g id="Group_356-2" data-name="Group 356" transform="translate(619.763 337.244)">
          <circle id="Ellipse_3-2" data-name="Ellipse 3" cx="15.983" cy="15.983" r="15.983" transform="translate(15.987 0)" fill="#01c5c4"/>
          <path id="Path_210-2" data-name="Path 210" d="M725.725,549.977c.227,3.4-16.55,17.23-32.193,17-15.024-.218-31.286-13.376-31.74-17-.365-2.925,16.743-12.453,31.74-13.376C708.268,535.694,725.648,548.824,725.725,549.977Z" transform="translate(-661.786 -501.687)" fill="#01c5c4"/>
        </g>
      </g>
      <text id="View_Profile" data-name="View Profile" transform="translate(297 280)" fill="#fff" font-size="20" font-family="Roboto-Regular, Roboto"><tspan x="0" y="0">View Profile</tspan></text>
      <path id="Polygon_1" data-name="Polygon 1" d="M9,0l9,16H0Z" transform="translate(313 384) rotate(90)" fill="#fff"/>
    </g>
    <g id="Footer" transform="translate(0 1009)">
      <rect id="Base-2" data-name="Base" width="1920" height="71" fill="#3d4251"/>
      <text id="Terms_of_use_Privacy_Policy_2020_All_rights_Reserved_Powered_by_parikshak.com" data-name="Terms of use | Privacy Policy
©  2020 All rights Reserved | Powered by parikshak.com" transform="translate(960 28)" fill="#fff" font-size="13" font-family="ArialMT, Arial"><tspan x="-82.961" y="0">Terms of use | Privacy Policy</tspan><tspan x="-162.192" y="24" xml:space="preserve">©  2020 All rights Reserved | Powered by parikshak.com</tspan></text>
      <g id="Layer_1" data-name="Layer 1" transform="translate(277 9)">
        <path id="Path_230" data-name="Path 230" d="M537.142,32.31c-7.521,2.1-25.9,29.389-25.9,29.389L506,53.608l3.514.342,1.519,2.525S523.984,35.52,537.142,32.31Z" transform="translate(-452.765 -28.911)" fill="url(#linear-gradient)"/>
        <path id="Path_231" data-name="Path 231" d="M504.989,294.99l9.694,20.25h-4.476l-7.8-14.005L500.4,315.24H496.13l3.879-20.216,2.416,3.678Z" transform="translate(-443.933 -263.955)" fill="url(#linear-gradient-2)"/>
        <path id="Path_232" data-name="Path 232" d="M660.17,253.643l-1.147,1.72a5.712,5.712,0,0,0-3.051-.987,2.361,2.361,0,0,0-1.353.332,1.027,1.027,0,0,0-.482.884,1.123,1.123,0,0,0,.211.688,1.878,1.878,0,0,0,.746.515,12.4,12.4,0,0,0,1.594.54,6.974,6.974,0,0,1,2.925,1.4,3.119,3.119,0,0,1,.947,2.431A3.257,3.257,0,0,1,659.086,264a6.249,6.249,0,0,1-3.646,1.021,7.7,7.7,0,0,1-2.719-.459A6.6,6.6,0,0,1,650.6,263.3l1.473-1.652a5.4,5.4,0,0,0,3.3,1.193,2.8,2.8,0,0,0,1.571-.39,1.226,1.226,0,0,0,.585-1.077,1.432,1.432,0,0,0-.218-.842,1.761,1.761,0,0,0-.781-.55,16.291,16.291,0,0,0-1.754-.585,5.9,5.9,0,0,1-2.735-1.411,3.1,3.1,0,0,1-.871-2.259,3,3,0,0,1,.585-1.813,3.893,3.893,0,0,1,1.651-1.262,6.146,6.146,0,0,1,2.443-.459A6.82,6.82,0,0,1,660.17,253.643Z" transform="translate(-582.152 -225.658)" fill="#fff"/>
        <path id="Path_233" data-name="Path 233" d="M776.931,215.7a3.819,3.819,0,0,1,.917,2.706v8.785h-2.935v-8.326a2.331,2.331,0,0,0-.379-1.514,1.389,1.389,0,0,0-1.112-.436,2.19,2.19,0,0,0-1.354.47,5.365,5.365,0,0,0-1.192,1.341v8.464H767.94V210.218l2.936-.3V216.5a4.43,4.43,0,0,1,3.532-1.789A3.273,3.273,0,0,1,776.931,215.7Z" transform="translate(-687.147 -187.835)" fill="#fff"/>
        <path id="Path_234" data-name="Path 234" d="M895.644,262.52a1.391,1.391,0,0,0,.7.516l-.62,1.951a3.744,3.744,0,0,1-1.683-.505,2.6,2.6,0,0,1-1-1.262,3.882,3.882,0,0,1-1.548,1.368,4.734,4.734,0,0,1-2.076.447A3.923,3.923,0,0,1,886.552,264a3.606,3.606,0,0,1-1.052-2.707,3.5,3.5,0,0,1,1.433-3.015,6.858,6.858,0,0,1,4.091-1.042h1.514v-.688a2.089,2.089,0,0,0-.54-1.64,2.615,2.615,0,0,0-1.732-.47,10.245,10.245,0,0,0-3.211.642l-.688-2a12.223,12.223,0,0,1,4.4-.872q4.655,0,4.657,4.175v5.092A1.94,1.94,0,0,0,895.644,262.52Zm-3.108-1.113v-2.453H891.32q-2.841,0-2.841,2.109a1.948,1.948,0,0,0,.435,1.354,1.644,1.644,0,0,0,1.285.482A2.594,2.594,0,0,0,892.536,261.407Z" transform="translate(-792.338 -225.675)" fill="#fff"/>
        <path id="Path_235" data-name="Path 235" d="M1016.575,209.48V226.8h-2.935v-17Zm7.271,5.184-4.037,5.345,4.427,6.789h-3.367l-4.175-6.628,4.06-5.5Z" transform="translate(-906.997 -187.441)" fill="#fff"/>
        <path id="Path_236" data-name="Path 236" d="M112.92,253.764a8.518,8.518,0,0,1,1.1,4.7,9.234,9.234,0,0,1-.562,3.338,5.062,5.062,0,0,1-1.652,2.282,4.134,4.134,0,0,1-2.581.83,3.788,3.788,0,0,1-3.051-1.331v5.665l-2.936.316V252.434h2.569l.161,1.491a4.758,4.758,0,0,1,1.628-1.376,4.253,4.253,0,0,1,1.93-.459A3.776,3.776,0,0,1,112.92,253.764Zm-1.972,4.725a6.7,6.7,0,0,0-.574-3.211,1.869,1.869,0,0,0-1.72-.988,2.359,2.359,0,0,0-1.376.447,3.893,3.893,0,0,0-1.1,1.2V261.4a2.575,2.575,0,0,0,2.225,1.262Q110.949,262.663,110.949,258.489Z" transform="translate(-92.378 -225.568)" fill="#fff"/>
        <path id="Path_237" data-name="Path 237" d="M232.053,262.544a1.393,1.393,0,0,0,.7.517l-.619,1.949a3.727,3.727,0,0,1-1.683-.5,2.6,2.6,0,0,1-1-1.262,3.892,3.892,0,0,1-1.549,1.368,4.725,4.725,0,0,1-2.076.447,3.924,3.924,0,0,1-2.867-1.032,3.607,3.607,0,0,1-1.052-2.707,3.5,3.5,0,0,1,1.434-3.016,6.874,6.874,0,0,1,4.087-1.046h1.514v-.688a2.094,2.094,0,0,0-.539-1.64,2.6,2.6,0,0,0-1.732-.47,10.222,10.222,0,0,0-3.211.643l-.688-2a12.266,12.266,0,0,1,4.4-.871q4.655,0,4.655,4.175V261.5A1.951,1.951,0,0,0,232.053,262.544Zm-3.108-1.112v-2.455H227.73q-2.841,0-2.841,2.11a1.941,1.941,0,0,0,.437,1.353,1.649,1.649,0,0,0,1.284.482A2.594,2.594,0,0,0,228.945,261.431Z" transform="translate(-198.563 -225.693)" fill="#fff"/>
        <path id="Path_238" data-name="Path 238" d="M357.207,255.918l-.5,2.841a4.391,4.391,0,0,0-1.077-.135,2.062,2.062,0,0,0-1.7.768,5.868,5.868,0,0,0-.981,2.352v6.468H350V256.079h2.546l.276,2.385a4.365,4.365,0,0,1,1.263-2.007,2.857,2.857,0,0,1,1.9-.7A4.362,4.362,0,0,1,357.207,255.918Z" transform="translate(-313.177 -228.85)" fill="#fff"/>
        <path id="Path_239" data-name="Path 239" d="M435.741,200.886a1.733,1.733,0,0,1,.517,1.273,1.7,1.7,0,0,1-.517,1.262,1.843,1.843,0,0,1-1.341.5,1.811,1.811,0,0,1-1.319-.5,1.694,1.694,0,0,1-.516-1.262,1.732,1.732,0,0,1,.516-1.273,1.788,1.788,0,0,1,1.319-.516A1.815,1.815,0,0,1,435.741,200.886Zm.149,5.632v12.134h-2.936V206.518Z" transform="translate(-387.055 -179.289)" fill="#fff"/>
        <path id="Path_240" data-name="Path 240" d="M435,196.385v.881a3.783,3.783,0,0,1,3.185,0v-.889a3.987,3.987,0,0,0-1.605-.426A3.741,3.741,0,0,0,435,196.385Z" transform="translate(-389.235 -175.334)" fill="#e87b1a"/>
        <path id="Path_241" data-name="Path 241" d="M428.265,182.517l-2.089-1.157-2.746,1.572,1.217.553.005-.154a3.447,3.447,0,0,1,1.578-.4,3.7,3.7,0,0,1,1.6.387l.005.28.753-.407v1.245h-.19v.443l.254-.176.281.176v-.443h-.21V183.12h0l.316-.17-.316-.176Z" transform="translate(-378.882 -162.279)" fill="#e87b1a"/>
        <rect id="Rectangle_732" data-name="Rectangle 732" width="128.868" height="53.025" fill="none"/>
      </g>
    </g>
    <g id="Component_6_4" data-name="Component 6 – 4" transform="translate(0 -1)">
      <g id="Base-3" data-name="Base">
        <g transform="matrix(1, 0, 0, 1, 0, 1)" filter="url(#Base)">
          <path id="Base-4" data-name="Base" d="M0,0H1920a0,0,0,0,1,0,0V40a30,30,0,0,1-30,30H30A30,30,0,0,1,0,40V0A0,0,0,0,1,0,0Z" transform="translate(0 -1)" fill="#fff" opacity="0.9"/>
        </g>
      </g>
      <text id="HOW_IT_WORKS" data-name="HOW IT WORKS" transform="translate(548 40)" fill="#3d4251" font-size="16" font-family="FiraSans-Medium, Fira Sans" font-weight="500"><tspan x="0" y="0">HOW IT WORKS</tspan></text>
      <text id="ABOUT" transform="translate(462 40)" fill="#3d4251" font-size="16" font-family="FiraSans-Medium, Fira Sans" font-weight="500"><tspan x="0" y="0">ABOUT</tspan></text>
      <text id="CONTACT" transform="translate(683 40)" fill="#3d4251" font-size="16" font-family="FiraSans-Medium, Fira Sans" font-weight="500"><tspan x="0" y="0">CONTACT</tspan></text>
      <g id="Group_1227" data-name="Group 1227" transform="translate(-0.252)">
        <g id="Group_1216" data-name="Group 1216" transform="translate(332.896 7)">
          <path id="Path_428" data-name="Path 428" d="M901.106,103.981c-8.669,2.429-29.849,33.876-29.849,33.876l-6.042-9.327,4.051.39,1.751,2.907s14.928-24.147,30.088-27.846Z" transform="translate(-864.02 -103.981)" fill="url(#linear-gradient-3)"/>
          <path id="Path_429" data-name="Path 429" d="M865.563,366.654,876.736,390h-5.158l-8.986-16.143L860.277,390h-4.926l4.471-23.3,2.785,4.24Z" transform="translate(-855.352 -334.8)" fill="url(#linear-gradient-4)"/>
        </g>
        <g id="Group_1217" data-name="Group 1217" transform="translate(351.635 28.485)">
          <path id="Path_430" data-name="Path 430" d="M1020.9,325.544l-1.322,1.983a6.573,6.573,0,0,0-3.516-1.137,2.721,2.721,0,0,0-1.56.383,1.182,1.182,0,0,0-.555,1.018,1.285,1.285,0,0,0,.238.793,2.165,2.165,0,0,0,.859.595,14.327,14.327,0,0,0,1.837.621,8.069,8.069,0,0,1,3.371,1.613,3.61,3.61,0,0,1,1.1,2.8,3.758,3.758,0,0,1-1.692,3.265,7.189,7.189,0,0,1-4.2,1.177,8.887,8.887,0,0,1-3.133-.529,7.592,7.592,0,0,1-2.446-1.454l1.692-1.9a6.241,6.241,0,0,0,3.807,1.375,3.221,3.221,0,0,0,1.811-.449,1.415,1.415,0,0,0,.674-1.243,1.65,1.65,0,0,0-.251-.965,2.07,2.07,0,0,0-.9-.635,18.894,18.894,0,0,0-2.022-.674,6.751,6.751,0,0,1-3.146-1.626,3.606,3.606,0,0,1-1-2.6,3.46,3.46,0,0,1,.674-2.089,4.477,4.477,0,0,1,1.9-1.454,7.073,7.073,0,0,1,2.816-.529A7.867,7.867,0,0,1,1020.9,325.544Z" transform="translate(-1009.871 -318.696)" fill="#4f4f57"/>
          <path id="Path_431" data-name="Path 431" d="M1137.526,288.245a4.4,4.4,0,0,1,1.057,3.12v10.126H1135.2v-9.6a2.685,2.685,0,0,0-.436-1.745,1.607,1.607,0,0,0-1.282-.5,2.525,2.525,0,0,0-1.56.542,6.181,6.181,0,0,0-1.375,1.547v9.756h-3.384V281.927l3.384-.344v7.588a5.107,5.107,0,0,1,4.072-2.062A3.779,3.779,0,0,1,1137.526,288.245Z" transform="translate(-1112.938 -281.53)" fill="#4f4f57"/>
          <path id="Path_432" data-name="Path 432" d="M1256.369,335.762a1.6,1.6,0,0,0,.806.595l-.714,2.247a4.325,4.325,0,0,1-1.943-.582,2.971,2.971,0,0,1-1.15-1.454,4.482,4.482,0,0,1-1.785,1.573,5.446,5.446,0,0,1-2.393.516,4.522,4.522,0,0,1-3.3-1.19,4.169,4.169,0,0,1-1.216-3.12,4.036,4.036,0,0,1,1.652-3.477,7.926,7.926,0,0,1,4.719-1.2h1.745v-.793a2.413,2.413,0,0,0-.621-1.89,3.006,3.006,0,0,0-2-.542,11.8,11.8,0,0,0-3.7.74l-.793-2.3a14.129,14.129,0,0,1,5.076-1q5.367,0,5.367,4.812v5.869A2.24,2.24,0,0,0,1256.369,335.762Zm-3.583-1.282v-2.829h-1.4q-3.279,0-3.278,2.432a2.242,2.242,0,0,0,.5,1.56,1.9,1.9,0,0,0,1.481.555A2.994,2.994,0,0,0,1252.787,334.48Z" transform="translate(-1216.196 -318.696)" fill="#4f4f57"/>
          <path id="Path_433" data-name="Path 433" d="M1376.245,281.147v19.961h-3.384V281.517Zm8.381,5.975-4.653,6.16,5.1,7.826h-3.887l-4.812-7.641,4.68-6.345Z" transform="translate(-1328.841 -281.147)" fill="#4f4f57"/>
        </g>
        <path id="Path_434" data-name="Path 434" d="M473.631,325.684a9.822,9.822,0,0,1,1.269,5.42,10.635,10.635,0,0,1-.648,3.847,5.849,5.849,0,0,1-1.9,2.631,4.784,4.784,0,0,1-2.974.952A4.362,4.362,0,0,1,465.858,337v6.53l-3.384.37v-19.75h2.961l.185,1.719a5.482,5.482,0,0,1,1.877-1.586,4.9,4.9,0,0,1,2.221-.529A4.356,4.356,0,0,1,473.631,325.684Zm-2.274,5.446a7.734,7.734,0,0,0-.661-3.7,2.152,2.152,0,0,0-1.983-1.137,2.724,2.724,0,0,0-1.586.516,4.5,4.5,0,0,0-1.269,1.388v6.293a2.97,2.97,0,0,0,2.565,1.454Q471.358,335.942,471.357,331.13Z" transform="translate(-177.222 -290.102)" fill="#4f4f57"/>
        <path id="Path_435" data-name="Path 435" d="M592.773,335.818a1.606,1.606,0,0,0,.806.595l-.714,2.247a4.327,4.327,0,0,1-1.943-.582,2.972,2.972,0,0,1-1.15-1.454,4.482,4.482,0,0,1-1.785,1.573,5.446,5.446,0,0,1-2.393.515,4.522,4.522,0,0,1-3.3-1.19,4.168,4.168,0,0,1-1.216-3.12,4.036,4.036,0,0,1,1.652-3.477,7.927,7.927,0,0,1,4.719-1.2h1.745v-.793a2.413,2.413,0,0,0-.621-1.89,3,3,0,0,0-2-.542,11.8,11.8,0,0,0-3.7.74l-.793-2.3a14.128,14.128,0,0,1,5.076-1q5.367,0,5.367,4.812v5.869A2.242,2.242,0,0,0,592.773,335.818Zm-3.582-1.282v-2.829h-1.4q-3.279,0-3.278,2.432a2.242,2.242,0,0,0,.5,1.56,1.9,1.9,0,0,0,1.481.555A2.994,2.994,0,0,0,589.191,334.536Z" transform="translate(-281.439 -290.26)" fill="#4f4f57"/>
        <path id="Path_436" data-name="Path 436" d="M717.566,327.607l-.582,3.278a5.112,5.112,0,0,0-1.242-.159,2.377,2.377,0,0,0-1.957.886,6.809,6.809,0,0,0-1.137,2.71v7.456h-3.384V327.792H712.2l.317,2.75a5.029,5.029,0,0,1,1.454-2.313,3.3,3.3,0,0,1,2.194-.806A5.006,5.006,0,0,1,717.566,327.607Z" transform="translate(-394.084 -293.325)" fill="#4f4f57"/>
        <g id="Group_1218" data-name="Group 1218" transform="translate(324.08 25.073)">
          <path id="Path_437" data-name="Path 437" d="M795.45,272.641a1.994,1.994,0,0,1,.595,1.467,1.95,1.95,0,0,1-.595,1.454,2.118,2.118,0,0,1-1.547.582,2.083,2.083,0,0,1-1.52-.582,1.95,1.95,0,0,1-.595-1.454,1.994,1.994,0,0,1,.595-1.467,2.058,2.058,0,0,1,1.52-.595A2.093,2.093,0,0,1,795.45,272.641Zm.172,6.491v13.986h-3.384V279.132Z" transform="translate(-790.68 -269.738)" fill="#4f4f57"/>
          <path id="Path_438" data-name="Path 438" d="M794.249,268.089V269.1a4.359,4.359,0,0,1,3.671,0v-1.029a4.591,4.591,0,0,0-1.85-.491A4.286,4.286,0,0,0,794.249,268.089Z" transform="translate(-792.842 -265.817)" fill="#e87b1a"/>
          <path id="Path_439" data-name="Path 439" d="M788.224,254.35l-2.409-1.336-3.165,1.812,1.405.639.006-.176a3.975,3.975,0,0,1,1.817-.459,4.26,4.26,0,0,1,1.846.447l.006.323.869-.47v1.435h-.22v.51l.292-.2.324.2v-.51h-.238v-1.52h0l.365-.2-.365-.2Z" transform="translate(-782.65 -253.014)" fill="#e87b1a"/>
        </g>
      </g>
    </g>
  </g>
</svg>
