<svg xmlns="http://www.w3.org/2000/svg" xmlns:xlink="http://www.w3.org/1999/xlink" width="1920" height="1080" viewBox="0 0 1920 1080">
  <defs>
    <clipPath id="clip-Student_Logout">
      <rect width="1920" height="1080"/>
    </clipPath>
  </defs>
  <g id="Student_Logout" data-name="Student Logout" clip-path="url(#clip-Student_Logout)">
    <rect id="Rectangle_731" data-name="Rectangle 731" width="426" height="205" rx="10" transform="translate(1070 473)" fill="rgba(61,66,81,0.85)"/>
    <g id="Group_1644" data-name="Group 1644" transform="translate(0 -23)">
      <text id="Are_you_sure_you_wanna_logout_" data-name="Are you sure you wanna logout ?" transform="translate(1140 568)" fill="#fff" font-size="20" font-family="Roboto-Regular, Roboto"><tspan x="0" y="0">Are you sure you wanna logout ?</tspan></text>
      <g id="Group_393" data-name="Group 393" transform="translate(-77 -30)">
        <g id="Group_341" data-name="Group 341" transform="translate(1230 641)">
          <g id="Rectangle_1" data-name="Rectangle 1" fill="none" stroke="#fff" stroke-width="1">
            <rect width="119" height="37" rx="3" stroke="none"/>
            <rect x="0.5" y="0.5" width="118" height="36" rx="2.5" fill="none"/>
          </g>
          <text id="Yes" transform="translate(49 23)" fill="#fff" font-size="14" font-family="FiraSans-Regular, Fira Sans"><tspan x="0" y="0">Yes</tspan></text>
        </g>
        <g id="Group_391" data-name="Group 391" transform="translate(1372 641)">
          <rect id="Rectangle_1-2" data-name="Rectangle 1" width="119" height="37" rx="3" fill="#f57f25"/>
          <text id="No" transform="translate(51 23)" fill="#fff" font-size="14" font-family="FiraSans-Regular, Fira Sans"><tspan x="0" y="0">No</tspan></text>
        </g>
      </g>
    </g>
    <g id="Group_392" data-name="Group 392" transform="translate(221 220)">
      <path id="Union_3" data-name="Union 3" d="M9.778,11.556l-8,8L0,17.778l8-8-8-8L1.777,0l8,8,8-8,1.779,1.777-8,8,8,8-1.779,1.779Z" transform="translate(1236 272)" fill="#fff"/>
    </g>
  </g>
</svg>
